<?xml version="1.0" standalone="no"?><!DOCTYPE svg PUBLIC "-//W3C//DTD SVG 1.1//EN" "http://www.w3.org/Graphics/SVG/1.1/DTD/svg11.dtd" ><svg xmlns="http://www.w3.org/2000/svg"><metadata></metadata><defs><font id="Söh9SËkÛ{LNf{OS2012rH ^8Ä:Version 2.02" horiz-adv-x="256"><font-face font-family="Söh9SËkÛ{LNf{OS2012rH" font-weight="400" font-stretch="normal" units-per-em="256" panose-1="2 1 6 1 3 1 1 1 1 1" ascent="218" descent="-38" x-height="1" bbox="-29 -56 245 197" underline-thickness="0" underline-position="0" unicode-range="U+0043-ff0c" /><missing-glyph horiz-adv-x="256"  /><glyph glyph-name="C" unicode="c" d="M169 46 Q152 10 116 9 Q56 14 51 82 Q55 146 113 150 Q151 149 164 110 L174 110 L172 155 L165 155 Q163 153 160 153 Q158 153 152 155 Q130 163 111 163 Q21 156 13 79 Q20 4 106 -2 Q117 -2 133 0 Q145 1 150 1 Q159 1 165 0 Q176 21 180 46 L169 46 Z" /><glyph glyph-name="J" unicode="j" d="M2 149 L6 149 Q26 150 25 130 L25 -15 Q25 -40 13 -40 Q9 -40 3 -34 Q-4 -25 -11 -25 Q-27 -27 -29 -41 Q-29 -56 -1 -56 Q22 -56 38 -40 Q61 -18 61 18 L61 130 Q61 150 79 149 L83 149 L83 159 L2 159 L2 149 Z" /><glyph glyph-name="M" unicode="m" d="M105 0 L112 0 L169 130 L175 39 Q176 33 176 27 Q177 8 156 10 L152 10 L152 0 L232 0 L232 10 Q217 11 214 15 Q210 18 210 35 L204 130 Q202 143 205 146 Q207 149 222 149 L222 159 L167 159 L119 52 L69 159 L15 159 L15 149 Q27 148 30 145 Q33 142 33 130 L27 37 Q27 19 23 15 Q19 10 5 10 L5 0 L62 0 L62 10 Q48 10 44 15 Q40 19 41 35 L47 126 L105 0 Z" /><glyph glyph-name="P" unicode="p" d="M65 67 Q71 66 77 65 Q83 65 94 65 Q156 67 158 113 Q155 162 88 163 Q65 163 47 162 Q21 161 6 159 L6 149 L11 149 Q31 150 29 134 L29 25 Q31 9 11 10 L7 10 L7 0 L94 0 L94 10 L87 10 Q63 8 65 29 L65 67 ZM65 150 Q74 153 83 152 Q119 151 120 115 Q119 77 83 76 Q73 76 65 78 L65 150 Z" /><glyph glyph-name="b" unicode="b" d="M20 5 Q53 -1 71 -1 Q131 2 135 58 Q132 103 94 107 Q73 107 51 86 L51 171 L43 171 L4 159 L4 153 L11 150 Q22 147 20 134 L20 5 ZM51 74 Q61 86 74 87 Q101 85 103 47 Q102 9 74 8 Q51 8 51 43 L51 74 Z" /><glyph glyph-name="e" unicode="e" d="M106 35 Q88 15 75 16 Q49 19 44 54 L115 54 L115 61 Q111 63 109 72 Q106 87 98 95 Q86 107 66 107 Q15 103 11 50 Q13 1 58 -1 Q90 0 112 30 L106 35 ZM43 63 Q42 91 61 95 Q78 94 79 63 L43 63 Z" /><glyph glyph-name="w" unicode="w" d="M56 0 L70 0 L101 65 L129 0 L143 0 L176 74 Q183 97 199 96 L199 104 L152 104 L152 96 Q171 95 164 78 L146 34 L127 81 Q121 97 136 96 L136 104 L78 104 L78 96 Q89 97 94 80 L74 34 L54 83 Q48 95 62 96 L62 104 L1 104 L1 96 Q15 96 21 81 L56 0 Z" /><glyph glyph-name="uni3002" unicode="&#x3002;" d="M63 42 Q39 40 36 14 L36 12 Q38 -11 64 -13 L66 -13 Q90 -11 92 12 L92 14 Q90 40 65 42 L63 42 ZM65 36 Q86 35 87 14 Q87 12 87 12 Q86 -5 66 -7 L64 -7 Q43 -6 42 13 Q42 14 42 14 Q44 34 65 36 Z" /><glyph glyph-name="uniFF0C" unicode="&#xff0c;" d="M63 45 Q45 42 42 24 L42 20 Q44 1 64 -2 Q69 -5 64 -17 Q61 -24 53 -32 Q55 -34 56 -34 Q81 -21 87 12 L87 18 Q84 43 65 45 L63 45 Z" /><glyph glyph-name="uni4E0A" unicode="&#x4e0a;" d="M119 194 L125 193 Q131 193 134 161 Q152 121 151 103 L173 104 Q205 90 204 78 Q204 73 178 68 Q150 51 140 51 L136 21 L135 18 Q134 1 140 0 L188 3 L204 7 L211 6 L213 6 Q236 -2 241 -13 L241 -19 L216 -34 L208 -31 L196 -29 Q195 -32 151 -38 Q110 -47 53 -41 Q23 -31 14 -17 L10 -11 L104 -2 L99 16 Q119 83 122 116 Q110 149 112 164 L119 194 ZM150 101 L148 87 L149 86 L143 54 Q169 69 171 84 L150 101 Z" /><glyph glyph-name="uni4E2A" unicode="&#x4e2a;" d="M118 190 Q130 185 130 178 L130 174 Q105 142 89 127 Q133 134 153 134 L163 134 Q208 134 240 119 L240 114 Q240 112 231 110 L229 111 L227 111 L179 104 Q189 110 209 113 L209 116 L207 116 Q174 119 149 119 Q113 119 55 97 Q49 94 39 82 L36 82 L24 86 L20 83 Q20 86 9 88 L9 90 L13 98 L13 106 Q41 123 41 127 Q47 127 73 153 L118 190 ZM110 106 Q118 96 124 96 L122 95 Q135 73 134 61 Q136 29 131 29 L130 23 Q131 -14 122 -25 Q110 -42 97 -42 Q73 -35 73 -26 L75 -26 Q75 -14 62 -14 Q62 -11 55 -10 Q84 -10 84 -1 Q88 -1 89 3 L88 5 Q92 8 96 18 L96 33 L97 40 L96 42 L102 75 Q98 78 99 79 Q100 80 105 104 L110 106 Z" /><glyph glyph-name="uni4E3A" unicode="&#x4e3a;" d="M207 190 Q218 186 218 177 Q218 165 173 137 L143 107 L147 107 Q171 114 202 114 Q242 107 242 85 Q229 55 221 -19 Q209 -35 179 -35 L177 -36 L175 -36 Q114 -36 93 -16 L93 -14 L96 -13 L96 -11 Q110 -20 153 -23 L163 -23 Q188 -20 200 10 L202 17 L212 92 Q206 100 191 100 L177 100 Q166 100 163 97 L157 95 Q126 95 87 42 Q54 4 40 -22 Q24 -41 20 -41 Q9 -35 8 -29 Q8 -17 22 4 L24 4 L28 0 Q34 2 64 37 Q97 74 97 80 Q84 75 70 75 L68 78 L121 102 L175 168 L175 170 Q154 159 129 135 Q129 132 103 128 Q82 128 82 165 L87 177 L89 177 Q104 162 107 162 L109 162 Q130 162 186 188 L207 190 ZM145 59 Q160 59 175 39 L175 35 L166 30 Q160 30 125 55 Q125 59 145 59 Z" /><glyph glyph-name="uni4E48" unicode="&#x4e48;" d="M201 189 Q239 184 242 165 L242 161 Q244 144 211 117 Q191 82 157 52 L155 52 L150 47 Q118 18 91 1 L96 2 Q145 16 160 17 L166 18 L177 27 L179 28 Q182 28 184 21 Q189 -11 174 -13 L140 -19 L66 -36 Q20 -39 19 -30 Q26 -3 44 -1 Q78 12 127 58 L131 63 Q207 148 201 189 ZM112 159 Q141 157 143 144 L147 142 Q149 130 131 121 Q118 99 101 80 L96 77 L81 60 Q43 30 34 29 L28 28 L21 29 L15 27 L8 33 Q6 48 42 71 L64 96 L62 97 L62 99 Q76 100 95 142 L90 149 Q90 154 112 159 ZM199 77 L214 79 Q235 71 238 46 L239 37 Q245 -35 223 -38 L221 -41 L219 -41 L210 -34 L209 -26 Q215 -26 217 10 L215 13 Q220 14 220 49 Q217 69 199 77 Z" /><glyph glyph-name="uni4E5F" unicode="&#x4e5f;" d="M131 191 L140 191 L143 188 L133 128 Q172 139 194 139 Q205 139 208 129 L208 125 Q208 81 114 43 L109 41 Q101 41 99 50 Q93 50 90 64 L93 76 L95 76 L105 64 L109 74 L105 76 Q110 76 110 80 L109 94 Q84 79 70 66 L67 41 Q67 5 104 -7 Q116 -11 130 -11 L136 -11 L138 -13 L140 -11 L142 -13 L147 -11 Q190 -11 190 -5 L196 -8 Q196 -6 207 -2 Q216 2 235 55 L239 55 L239 50 L235 32 L235 24 Q235 14 242 -5 L240 -8 L242 -14 Q242 -29 219 -35 L218 -33 Q218 -39 181 -42 L173 -41 L169 -41 Q80 -41 60 -5 Q50 8 50 24 L50 26 L52 49 L50 49 L27 29 Q19 29 10 55 L13 69 L15 67 L17 67 Q59 87 59 99 Q63 109 65 109 Q71 102 71 99 L73 99 Q80 104 114 118 Q122 130 131 185 L128 188 L131 191 ZM117 59 Q155 67 190 106 L193 116 Q191 122 182 122 Q124 115 124 95 Q116 67 117 59 Z" /><glyph glyph-name="uni4E86" unicode="&#x4e86;" d="M199 191 L205 191 Q232 192 241 183 Q242 173 178 124 Q159 115 159 108 Q180 94 181 82 L181 74 L182 58 L183 47 L183 39 L184 28 L184 21 Q179 -41 161 -42 L152 -43 Q111 -45 39 -29 Q9 -31 9 -27 L9 -25 L32 -23 L34 -25 L36 -23 L61 -24 L64 -23 L66 -23 L68 -24 Q136 -15 135 -4 Q144 -3 144 63 L143 73 Q142 88 122 107 L124 109 L120 111 L120 114 Q139 129 177 170 L177 172 Q145 170 114 142 Q103 136 93 135 Q87 135 38 149 Q53 160 91 162 L199 191 Z" /><glyph glyph-name="uni4E8B" unicode="&#x4e8b;" d="M172 191 L183 191 Q194 188 204 172 L225 174 Q242 171 242 168 Q229 157 204 157 Q196 157 192 137 Q216 133 216 130 Q216 121 190 107 L187 95 Q228 92 228 82 Q228 65 188 51 L188 42 L192 40 Q192 47 198 47 Q204 46 204 39 L188 25 L190 24 L188 19 L200 -25 Q193 -35 157 -40 L136 -42 L49 -34 Q36 -34 36 -30 L70 -31 Q165 -23 165 -8 L163 -6 L165 -5 L163 1 L163 12 Q145 4 112 -2 Q108 -2 106 6 Q106 11 139 28 L122 13 L124 13 Q167 21 167 33 L165 37 L165 39 L167 41 L165 42 L163 42 L152 35 L150 36 L154 41 Q121 33 73 33 L70 32 L68 34 Q70 43 167 72 L167 83 L165 85 Q154 84 145 77 L143 77 L137 78 L134 76 L130 86 Q130 93 159 105 L170 112 L170 115 L169 120 L167 120 Q158 120 139 111 Q126 105 119 105 Q111 105 110 118 Q121 143 137 143 Q137 145 159 151 L159 154 Q110 149 87 137 L73 130 L70 131 L65 129 L61 129 Q36 129 18 143 L21 144 L23 143 L53 143 L128 160 Q178 166 178 171 L179 174 L172 191 ZM134 125 L134 123 L139 123 Q170 132 170 135 L172 149 Q134 139 134 125 ZM187 86 L187 75 L209 73 L213 79 Q213 88 200 88 L187 86 ZM188 69 L188 61 L192 61 L196 69 L195 70 L188 69 ZM87 40 L99 40 Q144 40 169 53 L167 54 L167 64 L165 64 Q92 45 87 40 Z" /><glyph glyph-name="uni4EC0" unicode="&#x4ec0;" d="M168 191 Q180 187 195 176 L198 160 L198 123 Q198 117 204 114 Q212 114 216 115 L221 114 L226 115 L240 109 L240 100 Q223 85 205 85 L196 86 Q184 65 184 15 Q184 4 187 -10 Q185 -36 179 -36 L179 -38 L160 -42 Q154 -36 152 -27 L151 10 L151 33 L152 35 L151 36 L154 79 L151 81 L107 72 L106 74 L104 72 Q104 75 95 79 L95 82 Q95 91 131 94 L162 104 L162 121 L163 123 L162 124 L165 171 L163 183 Q163 189 168 191 ZM77 173 Q88 172 106 155 Q100 144 85 131 Q85 127 75 117 L69 108 L62 95 L62 93 Q72 87 72 81 L72 57 L73 45 Q68 14 65 -3 L67 -10 L50 -21 Q44 -16 42 -3 L56 47 L56 65 Q56 72 48 71 L33 59 L22 55 L12 55 L9 64 Q9 71 29 93 Q42 112 62 159 L61 162 Q66 171 77 173 Z" /><glyph glyph-name="uni4EE3" unicode="&#x4ee3;" d="M217 191 Q219 184 224 184 L227 178 Q224 167 221 167 L217 167 L205 180 L205 183 Q210 191 217 191 ZM138 190 L138 188 L140 190 L143 190 Q169 181 169 167 Q169 159 161 137 L162 134 Q167 134 175.5 139 Q184 144 191 151 L199 153 Q207 151 207 147 Q204 124 191 124 L190 123 L186 123 L177 121 L175 121 Q161 121 161 114 Q161 28 198 8 Q206 4 213 4 L216 4 Q221 4 222 37 L225 37 L225 28 Q225 8 238 -5 Q242 -12 242 -19 Q235 -33 233 -33 L228 -33 L210 -26 L209 -28 L186 -12 Q147 19 147 95 L146 114 L144 114 Q119 105 110 105 Q100 107 100 110 L132 121 Q132 124 140 124 Q146 127 146 132 Q146 176 129 183 L129 186 Q129 188 138 190 ZM56 163 L59 161 L64 163 Q87 156 93 144 L93 140 Q89 127 76 110.5 Q63 94 59 89 L59 85 Q59 74 68 55 Q74 74 82 80 L84 77 Q77 63 72.5 45.5 Q68 28 61.5 9.5 Q55 -9 50 -25 Q47 -26 42 -42 L39 -42 L30 -41 Q25 -40 13 -26 Q45 35 38 52 L27 48 Q27 52 16 52 Q9 54 9 64 Q9 76 26 95 L52 143 L49 154 Q49 160 56 163 Z" /><glyph glyph-name="uni4EE5" unicode="&#x4ee5;" d="M172 191 L183 192 Q191 192 195 186 L197 186 Q214 169 215 154 Q216 147 202 131 Q201 124 179 83 Q180 79 160 47 Q161 43 153 31 Q153 23 126 -11 Q119 -28 109 -32 L100 -38 L79 -39 L70 -27 Q73 -4 95 -2 L113 9 Q146 50 159 90 Q161 100 165 118 Q170 145 169 161 L165 172 L162 180 Q162 183 172 191 ZM42 151 Q60 144 71 119 L80 85 Q75 53 68 53 L69 48 L71 48 Q86 59 90 64 Q96 65 96 69 L95 79 Q95 86 86 99 L85 101 L93 102 Q120 103 132 76 L133 52 L128 45 L121 42 Q110 38 98 34 Q68 14 60 7.5 Q52 1 30 -17 L13 -10 L10 -2 Q8 23 18 38 Q18 41 34 63 Q49 99 47 115 L47 119 L40 144 L40 148 L42 151 ZM173 46 Q183 46 207 30 Q227 25 231 14 Q240 6 241 -18 L242 -22 L239 -39 L218 -42 L215 -43 L195 17 Q176 35 173 44 L173 46 Z" /><glyph glyph-name="uni4EEC" unicode="&#x4eec;" d="M75 192 Q98 185 98 175 Q97 153 48 102 Q59 97 59 83 L59 81 L54 33 Q63 46 73 79 L75 78 L63 29 Q50 -10 43 -10 L35 -12 L32 -4 L33 -1 L32 1 Q44 51 44 83 L43 86 L38 86 Q38 76 18 71 L11 73 L10 72 L8 74 Q13 87 24 98 Q67 153 71 176 L64 188 Q70 192 75 192 ZM196 149 L200 149 L206 147 L208 149 Q241 141 241 133 Q241 121 228 113 Q224 94 217 84 L216 76 L217 68 L216 57 Q219 27 234 -23 L234 -27 Q234 -32 227 -39 Q227 -43 224 -43 L203 -42 L192 -34 Q177 -18 161 -18 Q155 -14 155 -9 Q161 -5 166 -6 Q171 -7 196 -13 L203 -10 L200 48 L206 119 Q206 130 168 136 L167 134 L165 134 Q158 134 157 138 L157 141 Q175 149 196 149 ZM113 133 Q130 133 130 126 Q130 116 122 116 Q116 115 112 110 L105 112 L98 111 L97 112 L100 118 Q94 121 88 121 L88 125 Q88 133 113 133 ZM82 95 L84 95 L85 94 L87 94 L88 95 Q99 84 109 68 L112 55 L111 48 Q106 38 102 17 Q96 13 89 12 Q65 12 65 20 Q65 25 81 49 L85 64 L85 66 L82 85 L82 95 Z" /><glyph glyph-name="uni4F1A" unicode="&#x4f1a;" d="M117 191 L127 191 Q127 185 117 165 L117 163 Q137 154 164 130 Q168 130 169 127 Q194 111 221 108 L221 110 L226 110 Q239 110 242 98 L242 96 Q241 83 235 83 L231 81 Q192 81 162 115 Q159 115 154 121 L120 154 L112 159 Q57 85 41 52 Q28 33 22 33 L17 29 L12 29 L9 32 L9 52 Q43 82 69 120 L117 191 ZM133 111 Q140 111 145 88 Q142 82 116 74 L111 69 L107 69 L110 80 Q91 94 91 100 L126 110 L133 111 ZM139 65 Q151 62 151 60 L151 54 Q137 44 94 -6 L96 -6 Q111 -6 137 6 Q143 6 143 11 L145 23 L144 24 L144 27 L146 29 Q155 29 158 -6 Q158 -37 145 -43 Q133 -36 133 -23 L137 -14 Q113 -21 84 -23 Q84 -25 75 -29 Q69 -19 69 -10 Q73 6 80 6 L112 40 L73 13 L71 13 Q69 13 62 15 Q51 28 70 33 L72 33 L130 61 Q130 63 139 65 Z" /><glyph glyph-name="uni4F46" unicode="&#x4f46;" d="M66 191 Q84 184 89 173 Q94 169 96 160 L88 143 L89 142 L89 140 Q87 128 55 85 Q72 68 73 61 L71 39 Q80 56 88 102 L91 102 Q79 4 68 -28 Q58 -42 51 -42 Q40 -30 40 -23 L48 47 L47 54 L36 51 Q35 53 25 54 L22 51 Q11 53 10 72 L9 73 Q23 108 39 126 Q59 162 59 180 L55 189 L57 191 L66 191 ZM207 153 L217 153 Q242 148 242 130 Q240 130 228 114 Q217 100 206 76 L207 67 L207 62 Q197 50 189 49 L180 49 L178 49 L169 51 L152 46 Q149 43 146 43 L146 45 L144 43 L132 42 Q127 47 122 66 L123 72 L120 83 L119 86 L122 89 Q121 117 103 134 L102 135 L106 138 Q126 139 139 98 L141 93 L142 92 L144 92 Q143 101 183 109 L191 108 Q198 126 198 131 L182 133 L135 125 Q156 150 207 153 ZM158 82 Q161 70 171 71 Q176 71 175 85 L179 89 L178 94 Q166 90 158 82 ZM179 26 L183 26 L189 25 L195 26 L196 25 L198 26 Q229 24 230 6 Q230 -2 226 -10 L217 -9 Q209 -9 201 -9 L178 -9 Q149 -10 97 -2 L97 2 Q97 12 179 26 Z" /><glyph glyph-name="uni4F53" unicode="&#x4f53;" d="M182 192 L184 192 Q187 192 187 187 L193 183 Q201 183 201 161 L203 153 Q181 136 159 134 L140 106 L141 105 L191 111 L192 110 L200 111 L223 111 L229 112 L235 111 L242 110 Q242 102 217 95 Q216 93 191 83 L192 75 L193 65 L206 68 L208 67 L209 69 Q226 67 226 63 Q226 53 204 47 L197 49 L195 46 Q193 -18 190 -18 L192 -25 L192 -27 Q188 -30 187 -36 L176 -43 L171 -43 Q153 -27 153 -16 L153 -12 Q160 -12 162 43 Q141 41 137 38 L126 38 L121 42 L129 54 Q129 59 147 62 Q147 64 170 76 L171 81 L171 92 L167 96 Q149 94 129 85 Q129 83 118 80 L115 84 L115 97 Q138 119 143 134 L141 134 Q115 137 115 139 Q115 142 150 144 Q162 178 182 192 ZM162 144 Q193 150 193 163 L193 165 Q193 181 184 181 Q172 181 162 144 ZM68 176 Q68 174 88 169 L91 161 L91 155 Q86 131 77 122 Q74 117 71 111 L59 93 Q62 93 66 80 L69 80 L79 106 L82 106 Q71 79 71 71 L71 68 L72 51 Q58 11 53 9 Q47 3 39 3 Q34 3 32 18 L32 20 Q45 47 47 63 Q47 73 41 73 L36 75 L32 73 L24 75 L18 75 Q8 80 8 91 Q37 114 47 126 Q60 153 60 164 L59 169 L68 176 ZM181 97 L188 86 L214 100 L198 100 Q181 99 181 97 ZM153 59 L156 59 Q168 59 168 68 L167 70 Q154 62 153 59 Z" /><glyph glyph-name="uni4F60" unicode="&#x4f60;" d="M139 192 Q156 181 156 159 L161 157 L199 169 Q217 169 226 154 Q223 135 175 106 L173 104 Q181 75 184 26 Q179 -43 167 -43 L153 -43 Q148 -43 143 -22 Q128 -4 110 0 L110 -2 L112 -15 Q111 -41 94 -41 L89 -43 Q83 -43 83 -19 L83 -4 Q87 47 98 47 L101 47 Q108 40 108 12 L106 12 L108 8 L112 8 L117 11 L137 -4 L145 -4 Q161 -4 161 47 L161 56 L156 104 Q160 130 173 130 L173 132 L167 132 Q147 114 137 111 L134 109 Q124 117 124 130 L124 138 Q132 155 139 192 ZM58 166 L60 166 Q67 166 71 130 Q71 114 45 70 L45 68 Q52 60 52 49 L51 22 L54 22 Q63 28 79 72 L83 72 L47 -20 Q47 -38 34 -38 Q27 -32 27 -13 Q36 30 36 46 L34 47 L34 49 Q30 46 12 44 L9 58 L9 63 Q9 69 44 120 Q57 148 58 166 ZM208 43 Q242 31 242 5 Q242 -4 222 -8 Q218 -8 210 5 L210 10 L211 11 L210 12 L210 14 L211 22 L207 42 L208 43 Z" /><glyph glyph-name="uni4F7F" unicode="&#x4f7f;" d="M140 193 Q153 193 161 168 Q177 164 177 161 L177 158 L157 135 L156 133 L157 132 Q156 122 155 122 L156 119 L155 118 L156 117 L186 123 Q198 123 198 116 L167 93 L179 89 L179 84 L155 62 L151 40 L152 35 Q148 35 145 19 Q196 -5 218 -5 L223 -1 L226 -1 L242 -16 L242 -22 L227 -35 L222 -35 L215 -36 Q213 -35 184 -32 Q172 -32 132 -2 L130 -1 Q87 -38 65 -43 L62 -43 Q59 -43 59 -38 Q59 -30 77 -28 Q102 -10 118 12 Q103 34 93 34 L90 37 L91 39 L90 46 L102 87 L101 90 L117 124 L125 134 L125 136 L100 143 L96 141 L96 143 Q98 149 108 153 L120 152 L124 152 Q137 154 137 161 L139 165 Q135 179 130 179 L126 178 L125 179 L125 185 Q131 193 140 193 ZM47 164 Q67 150 67 125 L68 124 Q65 123 56 96 Q52 95 44 69 Q44 64 50 53 L53 35 L55 35 L70 77 L69 81 Q71 81 73 87 Q75 96 77 96 L75 99 Q79 108 83 110 L83 108 Q78 98 73 62 Q70 59 64 35 L45 -7 Q38 -29 35 -31 L28 -34 Q23 -34 23 -18 L23 -16 Q35 26 35 34 L34 36 L35 40 L32 53 Q26 49 15 45 L13 46 Q8 48 8 51 Q8 75 18 84 L45 143 L45 161 L47 162 L47 164 ZM123 103 Q139 111 139 114 L139 123 L137 125 Q129 125 121 103 L123 103 ZM156 98 L159 98 L164 102 L162 102 Q156 101 156 98 ZM116 82 L117 81 L117 79 L115 74 L117 73 Q113 65 109 44 L106 40 Q121 30 127 29 Q131 29 135 45 L134 46 L134 48 L135 52 L121 51 Q119 51 119 55 Q119 62 123 67 L121 68 Q134 76 139 84 L139 93 L136 95 Q126 94 116 82 ZM156 84 L156 82 L160 82 L160 84 L156 84 Z" /><glyph glyph-name="uni505A" unicode="&#x505a;" d="M148 192 Q158 192 166 167 L166 145 L168 142 L178 143 Q187 135 187 133 Q184 117 178 117 L171 102 L170 100 L162 71 L162 68 Q159 63 159 54 L157 51 L157 49 Q157 46 174 32 Q178 24 210 14 L227 13 Q238 5 241 -3 Q237 -16 229 -22 Q228 -26 223 -26 L220 -26 Q168 -17 168 -7 Q164 -7 146 16 Q124 -7 106 -14 L101 -14 Q98 -14 97 -1 Q98 11 101 11 L109 -1 L111 -1 Q124 -1 138 32 L138 35 L124 67 Q98 14 88 14 L85 14 L80 16 L76 14 L75 16 L75 29 L73 35 Q73 49 85 112 L83 113 L52 103 L51 104 L51 106 Q63 116 86 126 L91 132 L90 134 Q97 146 103 146 L109 139 L124 131 Q117 122 101 118 Q96 118 89 82 L89 80 L91 77 Q102 84 117 87 Q122 98 125 98 L125 95 L123 90 L130 76 Q132 76 143 63 L145 63 L150 84 L150 87 Q150 89 146 92 L141 90 Q141 94 133 98 L131 107 L143 143 L146 167 L146 172 Q145 176 141 178 L138 176 L138 178 Q138 187 148 192 ZM64 186 Q66 185 66 175 Q66 161 48 125 Q46 119 44 110 Q40 100 35 84 Q30 74 25 74 L17 77 L10 76 L9 77 Q9 96 29 145 Q34 149 44 186 L64 186 ZM41 84 Q48 84 55 62 Q55 45 49 13 Q43 -14 41 -25 Q39 -36 30 -43 L28 -40 L39 38 L38 44 Q41 58 41 70 L41 77 L39 83 L41 84 ZM87 37 Q95 37 104 66 L102 67 Q88 67 87 37 Z" /><glyph glyph-name="uni517C" unicode="&#x517c;" d="M157 192 L159 192 L162 187 L162 178 Q147 154 139 154 L170 155 Q182 153 182 150 Q170 138 150 130 L150 127 L153 125 L160 126 Q175 124 175 121 L174 118 L164 107 L186 109 Q197 105 198 103 L153 70 L149 41 Q151 10 156 10 Q207 0 231 -7 L242 -15 L237 -17 L231 -20 L229 -20 L215 -15 L212 -16 Q174 -2 154 -1 L154 -8 Q157 -14 157 -30 L157 -32 L144 -43 Q144 -39 135 -38 L130 -37 L127 -30 L128 -28 L128 -11 Q128 2 123 2 Q105 -1 105 -5 L107 -11 L107 -19 L104 -22 L105 -23 L105 -25 L104 -26 L102 -26 L99 -23 Q99 -26 85 -28 Q82 -23 83 -15 L83 -7 L80 -3 Q70 -3 43 -25 L29 -26 Q29 -24 23 -24 L19 -13 Q31 -2 65 11 Q80 17 80 21 Q67 22 67 27 Q69 35 86 49 L89 67 L87 67 Q40 50 30 50 L24 50 Q10 51 10 62 L12 63 L28 62 Q39 62 74 76 Q91 80 94 86 L94 90 L90 90 L90 92 L94 92 L94 94 L90 94 L82 88 L74 88 L69 92 Q69 97 75 103 Q69 103 69 107 L72 107 L76 104 Q100 114 100 121 L98 121 L97 122 L95 122 Q95 131 108 132 Q117 129 119 124 Q150 138 159 145 L157 145 Q131 145 65 120 L63 124 Q63 133 100 147 Q156 177 157 192 ZM83 187 Q88 187 90 166 L91 163 Q96 162 96 159 Q91 149 80 150 L77 156 L77 176 Q80 187 83 187 ZM148 113 L148 110 L151 110 L151 113 L148 113 ZM114 93 L116 91 L129 98 L129 111 Q115 111 114 93 ZM151 86 L154 86 L167 97 Q151 98 151 86 ZM113 76 L122 71 Q125 71 126 77 L124 83 Q114 83 113 76 ZM113 73 L113 63 L121 69 L113 73 ZM105 26 L105 21 Q105 10 126 10 L128 11 L126 13 L126 33 L123 35 L121 35 Q108 31 105 26 Z" /><glyph glyph-name="uni51B3" unicode="&#x51b3;" d="M154 192 Q176 192 176 179 L176 168 L171 151 L197 159 Q209 155 209 151 L209 144 Q209 126 179 112 L179 110 L181 110 L215 129 L220 129 Q242 125 242 121 L226 103 Q203 103 146 65 L143 52 L144 51 Q139 51 124 12 Q100 -24 76 -24 Q76 -20 63 -18 L57 -19 L53 -16 L58 -12 L68 -12 Q95 -12 123 53 L85 38 L79 44 L82 49 L80 53 Q86 60 126 79 Q138 86 137 108 L124 105 Q118 105 109 114 L109 118 Q147 118 147 146 L148 162 L148 169 Q148 173 143 174 Q137 174 129 162 L127 162 Q127 184 151 192 L154 192 ZM39 155 Q57 155 66 140 Q73 140 80 126 L79 125 L80 123 L80 121 Q80 107 60 103 Q60 99 53 99 L49 95 L47 98 L50 101 Q42 138 33 149 L33 153 L39 155 ZM157 105 Q184 121 190 138 L182 138 Q160 131 160 118 L157 105 ZM50 47 L50 44 Q43 32 36 3 Q24 -25 13 -25 L8 -12 L8 -7 Q8 18 19 45 L21 45 L24 42 L24 21 L28 21 L50 47 ZM176 36 L178 36 Q209 18 220 -12 L218 -14 L220 -18 L220 -25 Q220 -35 211 -42 Q188 -42 188 -37 L188 -22 L185 -19 L176 -18 L178 -16 Q178 -12 187 -12 L188 -7 Q188 8 176 36 Z" /><glyph glyph-name="uni5206" unicode="&#x5206;" d="M78 192 L81 192 Q81 185 95 172 L99 161 Q99 154 81 126 L100 131 Q111 131 121 117 Q121 104 102 73 Q110 77 126 77 Q143 77 148 46 L149 31 L149 15 Q149 -20 129 -29 Q109 -43 100 -43 L90 -41 L88 -42 L85 -41 L84 -42 Q73 -41 40 -32 L11 -23 Q11 -21 15 -21 Q40 -27 53 -27 Q102 -23 109 -15 Q123 -15 129 15 L127 17 L129 22 L127 27 L129 37 Q128 66 121 66 Q102 66 72 35 Q66 24 55 24 L48 28 L43 34 L44 36 Q41 36 41 38 L41 41 Q41 45 52 55 Q60 60 65 69 Q88 94 92 114 L90 115 Q77 106 62 94 Q44 81 44 75 L38 73 L37 74 Q35 76 29 76 Q29 80 24 85 L23 92 Q23 98 38 107 Q58 130 72 153 Q78 159 80 173 L78 192 ZM148 152 L153 153 L155 153 Q196 146 196 144 L197 145 L199 145 L201 143 L208 144 Q212 144 212 142 L214 143 Q216 143 233 141 Q242 140 242 137 Q242 132 236 120 Q236 112 220 104 L209 95 L191 90 Q191 91 180 96 Q171 101 170 103.5 Q169 106 165 110 Q161 114 146 132 L135 151 L148 152 Z" /><glyph glyph-name="uni529B" unicode="&#x529b;" d="M178 192 Q189 193 196 176 Q197 168 183 140 Q235 132 236 118 Q240 115 241 103 Q242 89 217 37 Q208 31 208 26 L206 27 Q202 19 184 5 Q185 1 171 -8 Q171 -12 163 -12 L157 -19 L152 -18 L137 -20 Q126 -21 123 -7 Q119 -7 106 37 L108 37 L105 41 L102 41 Q82 24 54 -14 Q47 -33 41 -33 Q31 -42 27 -42 Q27 -38 10 -38 L9 -34 Q8 -23 13 -23 L13 -19 L12 -17 Q17 -12 26 -8 L27 -9 L30 -9 Q29 -6 41 0 L42 3 L43 1 L45 1 Q92 58 92 63 Q96 64 106 82 L106 84 L98 84 Q80 88 69 100 Q120 120 132 132 Q142 133 142 142 Q157 168 156 176 L156 183 Q160 191 178 192 ZM129 58 Q146 19 157 15 Q175 16 188 83 L190 96 Q189 100 179 101 L178 99 L170 101 Q154 100 135 75 Q130 70 129 58 Z" /><glyph glyph-name="uni52A8" unicode="&#x52a8;" d="M218 192 L221 181 L221 173 L210 131 Q210 128 231 117 L239 100 L239 88 L237 77 L241 58 L239 58 L241 56 L241 33 L239 32 L241 30 Q237 7 235 7 L236 4 Q220 -17 199 -17 Q174 -17 174 1 Q170 1 167 17 L164 17 Q144 -43 131 -43 L120 -43 L117 -40 L115 -41 L113 -41 Q109 -41 108 -27 Q108 -17 119 -11 Q150 41 179 111 L181 121 L179 122 L177 122 Q160 122 148 101 L142 97 L129 97 L117 103 Q117 113 183 135 L197 184 Q207 192 218 192 ZM28 163 L44 163 L58 158 L63 160 Q81 157 81 154 L76 145 L81 142 L78 135 L80 126 L78 125 L75 126 L69 124 Q40 129 40 142 Q34 142 34 148 L22 160 L28 163 ZM191 53 L191 35 Q191 10 202 5 L209 5 Q222 5 226 43 Q223 109 209 109 Q191 85 191 53 ZM75 104 Q100 103 100 96 Q85 50 59 17 L61 17 Q73 17 88 35 L93 35 L98 30 Q98 21 85 14 Q82 2 51 -14 Q31 -24 21 -24 Q15 -23 15 -12 L15 -1 Q43 24 56 58 L54 58 L31 48 Q25 48 9 67 L9 71 L67 98 L75 104 ZM98 54 L100 54 Q110 54 117 12 Q113 -4 105 -6 L100 -1 Q101 18 103 18 L102 20 L102 25 L98 54 Z" /><glyph glyph-name="uni5347" unicode="&#x5347;" d="M58 192 L62 192 Q70 188 70 185 L85 185 Q113 176 122 164 L120 159 L122 155 Q110 152 105 147 Q81 148 81 152 L83 154 Q70 174 55 190 L58 192 ZM189 169 Q199 167 203 161 L193 123 L196 122 L206 123 L214 122 L229 124 L241 118 L241 114 Q233 105 228 105 L218 106 L216 106 Q216 102 191 102 L183 71 L185 65 L185 47 L183 46 L185 44 L185 24 Q185 -3 195 -23 Q194 -43 186 -43 L170 -43 Q162 -40 150 -19 L150 -16 Q158 -16 158 -13 L160 -12 L154 17 L156 23 L156 38 L158 42 L156 43 L164 100 Q154 100 126 85 L125 86 L125 88 L129 90 L126 90 Q95 87 95 75 Q89 59 85 45 Q81 31 78 22 Q73 14 65 11 L60 11 L53 12 L52 11 L50 11 Q36 11 27 27 Q20 36 16 43 L18 48 L14 51 Q17 59 20 59 L23 59 Q27 59 27 55 Q37 51 43 38 L48 38 L60 75 L58 75 L37 73 Q18 76 10 86 L10 91 Q10 94 37 97 Q63 103 64 105 L64 108 Q64 127 47 134 L56 137 Q81 137 85 126 Q89 110 97 110 L141 118 L143 117 L145 117 Q171 117 171 133 L176 158 L173 166 L189 169 Z" /><glyph glyph-name="uni5374" unicode="&#x5374;" d="M56 191 L59 191 Q71 188 74 181 L74 169 L73 157 Q88 152 89 146 Q82 141 82 137 Q70 133 70 131 L72 131 L72 129 Q68 129 62 106 L64 106 L95 115 L99 112 L104 113 L105 111 L104 108 L105 104 L104 103 L107 103 L107 101 Q81 78 60 36 L53 29 L53 27 Q72 30 84 39 Q92 40 92 45 Q90 45 85 58 L90 59 Q120 50 120 37 L120 31 Q120 22 91 19 Q41 -2 17 -2 L10 2 L10 7 Q9 22 34 33 Q53 57 68 82 L65 81 Q52 74 45 74 Q33 74 33 83 L47 115 L51 136 Q51 142 34 147 Q29 152 29 154 Q31 154 31 158 L33 158 L44 157 Q53 157 53 169 L51 172 L52 177 Q52 180 47 186 Q49 191 56 191 ZM170 167 L178 167 L188 157 L201 157 L214 156 L219 157 Q233 158 242 148 L237 126 L239 125 L237 119 L237 107 L238 101 L240 100 L240 98 Q241 45 220 36 Q198 34 198 31 Q202 31 201 26 Q192 35 179 34 L179 -4 L177 -5 L179 -6 Q178 -41 174 -42 L166 -41 L162 -41 L160 -42 L152 -34 Q151 -21 147 -19 L149 -19 L147 -18 Q152 -8 156 65 L153 67 Q156 69 158 90 L156 90 L159 103 L158 104 L160 128 L158 129 L158 131 L160 136 L158 139 Q138 138 125 124 L125 127 Q135 141 160 148 Q165 166 170 167 ZM182 143 L183 142 L183 139 L182 137 L183 130 L183 122 L184 114 L182 66 Q187 47 191 47 L197 47 Q217 47 217 64 Q219 73 220 73 L219 74 L219 92 Q219 111 216 117 L217 119 L214 142 Q208 148 198 147 L186 147 L182 143 Z" /><glyph glyph-name="uni539F" unicode="&#x539f;" d="M189 192 L195 192 Q211 190 211 178 Q205 166 199 164 L180 167 L151 159 L149 160 Q149 163 154 163 L155 165 L121 165 Q106 165 106 170 Q149 181 177 190 L189 192 ZM169 144 Q181 144 191 137 L191 135 L180 126 Q169 126 163 124 L149 126 Q141 126 129 118 L126 119 Q136 134 162 141 Q169 141 169 144 ZM215 128 L225 117 L225 114 Q225 83 194 61 Q189 53 189 25 L189 -7 Q186 -28 172 -28 Q109 -22 109 3 Q112 3 112 9 L114 9 Q123 -12 135 -12 Q175 -12 175 -3 L177 51 Q167 44 149 44 L146 49 L146 54 L149 66 L146 66 Q143 66 140 58 L136 57 L137 54 L136 53 L137 48 Q137 40 130 38 Q128 46 125 46 L118 41 L117 44 Q126 44 129 72 L132 86 L135 86 L135 80 L137 77 Q139 89 169 111 Q195 127 215 128 ZM138 63 L146 67 L149 67 Q155 80 170 87 Q185 96 189 96 L191 96 L194 94 L194 91 L175 66 L175 64 L177 64 Q212 84 212 109 Q212 115 207 117 L204 117 L199 114 L199 117 Q165 108 141 76 L138 63 ZM95 113 L98 113 L98 111 Q95 109 77 45 Q68 16 46 -17 L49 -20 L21 -42 L19 -43 L16 -43 L13 -43 L10 -41 L10 -37 L11 -36 L10 -35 L10 -32 Q10 -22 30 -6 L62 41 Q75 62 95 113 ZM161 62 L162 55 Q178 69 183 82 L180 82 Q161 71 161 62 ZM107 25 L110 23 Q106 23 101 -2 L104 -20 Q104 -28 92 -34 L88 -37 L86 -34 L86 -23 Q86 -10 96 17 L107 25 ZM221 21 Q240 8 240 -11 L239 -12 L239 -14 L240 -17 L239 -19 L236 -19 L234 -17 L228 -21 Q221 -18 212 -6 L215 3 L212 20 L214 21 L221 21 Z" /><glyph glyph-name="uni53D1" unicode="&#x53d1;" d="M209 192 L220 192 Q241 184 241 168 L232 160 L227 160 Q220 160 212 169 L213 174 L206 189 L209 192 ZM139 187 L144 187 Q153 187 156 183 L156 180 L134 131 L134 128 L136 128 Q149 133 149 144 L161 150 L163 149 L170 150 L179 150 Q181 150 183 143 Q183 125 149 116 Q114 95 114 80 Q111 80 111 74 L114 74 Q146 94 153 94 L163 94 L170 89 Q170 83 153 48 L149 29 Q166 12 203 12 L213 12 L217 14 L224 14 Q238 11 238 -4 L239 -9 L227 -19 L203 -18 L180 -19 L170 -19 Q159 -19 137 -1 Q116 -19 96 -21 Q85 -25 63 -28 L56 -27 L35 -40 L33 -40 L32 -39 L30 -39 L26 -43 L18 -43 Q11 -43 9 -22 Q9 -18 21 -9 L28 -18 L32 -18 Q60 9 92 82 Q67 67 67 56 L59 56 Q50 59 44 67 L44 86 Q54 95 68 129 L68 134 Q74 134 80 155 L78 169 L85 172 Q92 164 102 158 Q106 153 106 137 L94 106 L96 106 Q108 112 119 144 L128 163 L127 175 Q127 181 139 187 ZM99 49 Q115 33 132 33 L134 33 L144 68 L142 70 L144 70 L144 76 Q119 67 106 66 L99 49 ZM92 37 Q92 33 58 -21 L59 -22 Q103 -12 122 6 L123 10 Q123 12 110 21 L92 37 Z" /><glyph glyph-name="uni53D6" unicode="&#x53d6;" d="M74 192 Q80 185 97 171 L100 162 Q100 159 94 159 L94 157 L90 157 L89 158 L87 157 L85 157 Q80 157 74 162 L71 159 L67 161 L50 158 Q37 158 27 168 L69 190 L71 189 L74 192 ZM83 154 L86 154 Q94 153 94 149 L94 144 Q82 112 82 84 L83 81 L82 75 L83 71 Q93 78 100 93 Q124 115 157 118 Q167 123 176 139 L185 143 L193 143 Q196 143 196 136 L176 61 L180 54 L183 56 Q197 44 216 41 L218 39 L223 44 L224 43 L226 43 L230 44 L241 31 L241 19 Q235 6 224 6 L224 4 Q213 6 213 7 L212 6 L210 6 L187 15 L185 13 Q168 29 159 29 Q149 16 108 0 L106 0 L103 4 L103 6 Q106 10 128 16 Q148 29 153 41 L133 87 L136 87 L162 66 Q171 105 171 115 Q157 106 148 107 L147 106 L133 109 Q112 109 86 59 L83 44 L86 -32 L78 -39 L77 -37 L74 -42 Q61 -34 61 4 L61 8 Q67 8 67 20 L66 21 Q26 -35 21 -37 L16 -39 Q12 -39 10 -28 Q14 -12 27 13 L21 28 L22 48 L22 51 Q20 58 16 59 Q26 59 29 119 L30 122 L29 124 L30 131 L30 140 L32 140 Q38 140 44 69 L44 63 L47 61 Q47 65 52 72 L49 112 L55 115 Q57 115 69 97 L72 97 Q72 108 83 147 L81 147 L81 150 L83 154 ZM46 19 L50 19 L67 44 L66 47 Q54 34 46 19 Z" /><glyph glyph-name="uni53F0" unicode="&#x53f0;" d="M107 191 L110 190 L117 192 Q131 187 132 177 L130 165 L132 161 Q132 158 106 130 L103 126 Q83 111 82 108 L63 89 L65 89 L91 93 L93 91 L95 91 L170 109 L171 113 L169 126 Q181 120 182 116 Q173 87 133 85 L133 87 L131 87 Q127 87 125 80 L119 79 L113 80 Q80 64 41 55 L39 54 L33 54 Q11 56 11 60 L10 66 Q10 78 33 97 L99 169 L105 181 Q99 181 99 184 L107 191 ZM199 158 L201 157 L203 157 L210 158 Q240 143 241 128 Q221 79 178 54 Q157 43 92 26 Q76 17 76 8 L76 3 L82 -15 L85 -15 L87 -9 L91 -10 L89 -16 L91 -25 L92 -33 L88 -35 L86 -34 L80 -40 Q67 -41 58 6 Q70 36 103 38 Q164 54 187 78 L198 94 Q201 99 208 117 Q211 118 212 136 Q205 148 192 152 L188 153 L188 156 L198 155 L199 158 ZM197 45 L200 45 Q220 44 220 36 Q221 23 171 -8 L171 -11 L185 -9 Q210 -9 210 -17 Q198 -30 179 -30 Q179 -32 139 -39 Q139 -41 127 -42 L127 -39 Q138 -39 149 -31 Q142 -31 138 -26 L138 -23 Q137 -10 179 22 L179 25 L158 22 L107 25 L107 27 Q148 38 179 39 Q185 43 197 45 Z" /><glyph glyph-name="uni5404" unicode="&#x5404;" d="M114 192 Q122 186 135 171 L160 183 Q171 182 171 179 L171 175 Q171 172 146 149 Q121 122 121 111 Q170 72 213 72 L233 66 Q233 62 241 57 L241 54 Q237 54 228 37 L221 35 L214 37 L200 35 Q200 38 197 38 L193 37 Q179 41 140 75 L110 91 L107 90 L106 87 L91 64 L93 62 Q89 57 63 40 L63 37 Q71 37 83 19 Q110 43 126 43 L131 42 L140 42 Q154 42 167 30 L167 28 L165 28 L165 25 Q165 12 143 -4 L136 -13 L137 -14 L140 -14 L157 -10 Q173 -16 173 -18 Q173 -39 156 -39 L146 -43 L129 -40 L122 -40 Q113 -40 113 -26 Q113 -8 137 6 Q151 19 151 25 Q142 29 121 33 Q106 33 88 6 L90 -11 L89 -15 L90 -23 L89 -24 L90 -28 Q89 -42 86 -42 L85 -39 L80 -42 Q70 -42 70 -21 Q70 14 55 33 Q31 17 25 17 Q19 17 19 19 L17 18 L15 21 L15 28 L9 28 L9 30 Q12 37 18 41 L24 41 L28 38 L36 38 Q76 52 93 85 Q100 96 100 101 L97 103 L95 103 L97 101 L95 101 Q90 105 90 108 L86 108 Q79 99 65 96 Q54 101 54 112 Q54 120 80 141 L106 178 L106 182 L105 191 L106 192 L114 192 ZM100 122 Q107 117 112 118 Q134 149 152 163 L152 166 L150 166 Q132 166 132 155 Q100 131 100 122 Z" /><glyph glyph-name="uni540C" unicode="&#x540c;" d="M173 192 L191 192 Q232 190 240 171 L241 166 L232 109 L234 108 L232 102 L232 77 Q233 -5 236 -10 L236 -16 L238 -29 L229 -42 L173 -37 Q145 -17 114 -1 Q110 3 110 13 L110 15 Q133 -10 175 -21 Q175 -24 199 -25 Q211 -24 213 -13 L213 36 L211 41 L213 43 L210 55 L210 90 L209 133 L210 168 Q206 182 179 182 L177 182 Q164 182 118 168 L109 168 L107 171 Q162 192 173 192 ZM44 148 Q66 130 66 91 L69 81 L68 78 L69 74 Q54 -6 45 -10 Q44 -15 42 -18 L36 -20 Q35 -23 28 -23 Q25 -23 14 -19 Q8 -15 12 2 Q31 26 44 95 L44 107 L43 108 L44 113 L41 133 L44 148 ZM156 133 L170 134 L180 125 L180 123 Q176 109 165 109 L127 72 L127 70 Q135 74 135 76 L138 76 L159 81 L164 81 Q172 81 177 77 Q177 66 162 49 Q169 41 169 35 Q161 29 153 29 L144 37 L144 43 Q144 50 153 63 L148 63 Q115 52 115 42 L108 38 L104 38 Q102 38 98 46 Q98 59 120 86 L120 89 L123 88 Q137 102 137 105 L135 105 L126 104 L101 108 L99 106 Q88 114 86 122 L88 124 Q95 118 105 118 Q119 118 156 133 Z" /><glyph glyph-name="uni548C" unicode="&#x548c;" d="M75 192 L78 192 Q102 192 115 173 L115 166 L106 157 L95 157 L95 161 L97 164 L65 187 Q65 192 75 192 ZM74 160 Q82 160 84 133 L89 133 Q103 133 103 128 L103 124 Q103 120 99 120 L99 116 L100 110 Q98 90 86 51 Q102 62 117 83 L117 81 L84 27 Q75 18 75 11 L74 8 L76 0 L75 -8 L75 -28 L77 -33 L70 -43 Q55 -43 51 -29 L51 -25 L52 -18 Q49 -14 48 -7 Q41 -18 23 -22 Q14 -20 14 -18 L15 -13 L10 -11 Q11 -1 23 9 Q55 41 55 63 L57 96 L55 96 L44 90 L41 90 Q41 86 33 81 Q30 81 29 84 L28 83 L29 80 L18 72 L16 72 Q15 72 10 81 L10 83 L11 84 L10 86 L12 105 L15 105 Q15 101 16 101 L20 101 Q65 125 65 133 Q65 144 66 144 L65 145 L65 150 Q66 160 74 160 ZM215 114 L227 114 Q239 114 242 104 Q242 99 215 49 Q226 46 226 43 L226 40 Q216 26 199 27 L176 23 L175 26 L176 27 L176 29 Q174 29 168 39 Q168 43 187 61 Q199 80 199 87 Q149 79 149 72 Q149 64 153 55 L153 50 L159 12 Q147 0 141 0 Q130 10 130 39 L126 65 Q128 96 131 96 L135 96 Q144 88 144 72 L146 72 Q146 83 168 98 Q195 105 215 114 Z" /><glyph glyph-name="uni5668" unicode="&#x5668;" d="M216 192 L224 192 Q236 192 237 188 L193 161 L218 165 L219 163 Q219 157 192 146 Q182 137 173 136 L185 136 Q185 128 158 102 L158 100 L179 100 Q179 103 216 107 L219 110 Q242 107 242 102 Q242 99 237 99 Q232 83 214 83 Q95 48 95 32 Q117 41 123 41 L132 41 L134 38 L134 35 L113 2 Q122 2 143 22 L143 19 Q122 -17 95 -17 L93 -6 L115 21 L115 25 Q98 23 79 4 Q71 -36 66 -39 L61 -43 L59 -43 L56 -40 L56 -30 L58 -22 L56 -20 Q72 33 106 55 L145 76 L139 76 Q113 67 110 66 Q106 66 43 45 L17 45 Q9 49 9 54 Q12 59 17 62 L20 59 L22 59 Q95 86 134 97 Q147 104 147 111 L145 111 Q106 97 95 97 L93 99 Q95 117 113 116 L156 133 L154 140 L158 155 L158 164 L154 164 Q109 124 93 123 L89 124 Q89 121 84 121 L84 119 L87 119 L87 112 L63 106 L48 116 L50 117 L48 119 L48 133 L40 151 L43 154 L53 151 L69 155 Q78 155 91 136 L93 136 Q93 142 121 156 Q143 174 143 177 L141 178 L139 178 L84 165 L84 168 Q127 182 145 185 L151 185 L162 184 L172 190 L198 188 L216 192 ZM188 170 Q198 170 205 181 L203 182 Q188 182 188 170 ZM154 175 L143 163 L145 163 L158 173 L158 175 L154 175 ZM80 131 Q82 124 85 124 L93 133 L91 134 L87 134 L80 131 ZM219 54 L237 54 L242 50 Q242 33 221 14 L218 8 Q236 7 236 1 Q227 -16 197 -16 L171 -21 Q171 -19 180 -15 Q175 -10 175 -6 L199 28 L201 35 L199 35 Q156 30 156 11 Q152 -23 145 -23 Q139 -21 139 -15 Q139 -5 149 24 L151 27 Q158 41 160 52 L166 52 Q169 52 169 48 L167 38 L169 38 L219 54 Z" /><glyph glyph-name="uni5728" unicode="&#x5728;" d="M155 193 L159 189 L157 185 Q161 159 175 160 Q185 160 189 158 Q193 149 182 136 L175 132 L126 120 Q118 120 113 109 L114 108 Q111 106 88 43 Q89 26 84 -6 L80 -36 Q80 -38 69 -42 L66 -42 L56 -43 L52 -35 L54 -28 L53 -27 L56 1 L54 1 Q29 -23 18 -23 L12 -23 L9 -21 L9 -15 L59 29 Q64 35 66 65 L62 72 L65 75 L67 75 L82 61 Q104 105 103 112 L103 114 Q89 113 89 131 L91 131 L96 132 L100 131 Q115 132 124 153 Q129 164 155 193 ZM130 141 Q155 148 157 154 L157 160 L154 166 L152 166 Q139 165 128 141 L130 141 ZM177 114 Q203 106 204 80 L204 75 Q232 76 232 67 L234 63 Q235 47 204 17 Q204 10 201 5 L214 7 Q240 1 240 -3 L241 -4 Q241 -11 224 -24 L218 -24 L205 -22 L187 -24 L156 -23 Q146 -24 139 -14 L138 -8 L153 4 Q154 6 164 13 Q171 25 171 29 L169 35 L171 36 L171 38 L169 41 L154 41 L145 49 L145 58 Q151 66 160 67 L162 64 Q173 65 173 74 L176 108 L174 112 L177 114 Z" /><glyph glyph-name="uni5730" unicode="&#x5730;" d="M95 192 Q110 189 142 134 L143 132 L148 132 Q178 154 193 154 L200 154 Q210 154 215 140 Q215 108 173 88 L172 87 L182 59 Q179 59 175 49 Q167 52 161 62 L162 65 L158 76 L154 76 L132 71 L125 71 L115 74 Q107 68 107 65 Q144 38 193 26 L204 24 L220 23 Q228 21 239 21 L240 20 L240 18 L239 9 Q232 -2 221 -4 L216 -6 L202 -6 Q161 -6 91 48 Q80 32 74 7 L73 1 Q58 -43 40 -43 Q35 -42 25 -27 L27 10 L26 12 L29 37 L28 38 L33 73 L26 76 L22 75 Q14 84 9 104 Q24 104 35 120 Q42 120 42 149 L42 157 L45 160 L51 160 Q54 159 54 152 L51 135 L51 128 L54 128 L74 139 Q78 134 79 128 L81 125 L79 118 L82 115 Q82 111 56 90 Q39 73 40 48 L36 13 L35 -2 L39 -4 Q50 13 69 55 L76 65 L67 85 L67 90 L70 90 Q70 88 79 87 L86 81 L89 81 Q101 92 101 95 Q94 113 87 184 Q90 192 95 192 ZM90 172 Q90 153 111 105 L113 105 L132 121 Q132 128 102 169 L90 172 ZM158 114 Q158 106 168 93 Q207 112 207 131 L203 134 L199 134 Q185 134 158 114 ZM126 85 L126 82 L135 81 Q142 81 151 88 Q147 99 143 101 Q128 90 126 85 Z" /><glyph glyph-name="uni5751" unicode="&#x5751;" d="M155 193 L170 193 Q173 193 173 186 Q161 157 138 128 L137 123 L168 150 L176 151 Q182 149 182 147 Q182 133 151 92 L145 82 L145 77 Q155 71 155 55 Q155 45 149 11 Q152 -2 176 -9 Q212 0 220 10 Q229 39 229 70 L233 73 Q237 67 237 63 Q241 46 241 42 L241 8 Q241 -21 208 -28 L187 -29 Q155 -29 139 2 L138 10 L143 50 L143 61 L141 68 L139 68 L77 -34 Q77 -39 67 -43 Q63 -41 63 -38 L80 -10 L131 86 L130 87 L120 83 L117 83 Q112 83 111 101 Q111 107 147 159 L150 169 L149 171 L134 169 L130 169 Q113 160 105 143 Q105 164 126 185 Q144 193 155 193 ZM42 164 Q54 164 54 137 L54 130 L63 130 Q77 126 77 120 Q71 113 70 99 Q55 89 54 83 L49 50 L50 49 L50 47 L47 38 Q80 59 95 100 L103 135 L105 134 Q104 108 88 72 Q40 -12 37 -14 L28 -21 Q15 -21 15 -10 L13 3 Q18 32 26 84 Q16 84 9 95 L9 101 Q32 117 34 121 Q40 162 42 164 Z" /><glyph glyph-name="uni5904" unicode="&#x5904;" d="M139 192 Q151 192 160 163 L160 161 Q152 131 152 110 L152 106 Q152 100 150 100 Q152 86 184 86 Q195 86 206 70 L204 67 Q200 67 197 59 L195 59 L194 60 Q186 66 170 70 L155 77 L150 74 L150 43 L152 16 L150 13 L143 8 L140 8 L135 22 L134 41 L134 56 L135 58 L134 60 L135 74 L137 108 L137 141 L138 142 L137 144 L139 172 Q139 179 132 189 L139 192 ZM72 184 Q85 180 91 166 L92 160 L84 145 Q89 151 94 151 L99 149 L103 151 L109 151 L114 145 Q114 132 102 118 Q96 101 83 56 L81 53 Q81 50 138 5 Q150 -1 163 -1 Q173 -1 216 -11 L221 -11 Q237 -19 241 -26 Q237 -26 236 -35 L237 -40 L231 -43 L227 -43 Q183 -35 168 -31 L155 -28 Q127 -28 88 22 L77 29 L61 -7 Q56 -14 49 -20 L34 -23 L11 -26 L10 -25 L10 -23 Q10 -21 25 -17 Q62 13 62 43 L46 56 Q32 37 27 34 Q23 35 16 46 L16 53 Q16 58 44 103 Q71 156 73 166 L73 169 L66 181 L72 184 ZM54 65 L66 58 Q73 76 77 106 Q54 70 54 65 Z" /><glyph glyph-name="uni590D" unicode="&#x590d;" d="M116 193 L122 193 Q131 187 131 183 L131 179 L133 179 Q147 184 158 184 Q172 184 177 166 L179 166 L179 161 Q128 132 122 121 Q147 137 156 137 L166 130 L161 84 L150 57 L159 60 Q169 57 170 55 L170 53 Q170 51 149 43 Q105 18 95 8 Q144 25 154 25 L163 25 Q166 25 167 21 Q167 1 147 -16 Q231 -31 241 -41 L238 -43 L236 -43 Q224 -34 144 -19 Q115 -34 85 -38 Q70 -40 70 -42 L62 -41 L56 -41 L56 -38 Q99 -34 122 -18 L122 -16 L81 -11 Q63 -11 50 -25 Q35 -36 30 -36 Q30 -32 24 -32 L22 -28 Q22 -25 49 -7 L22 -5 L22 -3 L53 -5 Q74 5 120 37 Q116 40 111 40 Q99 39 85 25 L81 25 L79 27 Q71 25 21 6 L15 5 L10 7 Q10 18 27 23 L33 22 Q70 29 70 43 Q79 90 101 123 L120 145 L107 142 Q101 145 93 145 L92 147 L93 148 Q90 148 90 151 L88 151 L87 150 L85 151 Q85 158 108 186 Q108 190 116 193 ZM120 97 L120 95 L127 95 Q140 91 140 84 Q140 74 113 53 L113 50 L120 50 Q136 54 136 71 Q145 88 145 112 L143 114 L141 114 Q126 106 120 97 ZM104 70 L107 59 L110 59 Q124 75 124 81 L120 86 Q110 83 104 70 ZM99 60 L97 50 L99 50 L102 57 L99 60 ZM84 -5 Q84 -9 131 -13 Q145 1 145 9 L145 12 Q145 14 141 14 Q119 10 84 -5 Z" /><glyph glyph-name="uni591A" unicode="&#x591a;" d="M125 193 L128 193 Q143 193 143 177 L142 176 L144 173 Q139 157 134 148 L149 149 Q162 149 162 142 Q159 126 134 95 L138 94 L139 95 L142 94 L152 95 Q173 95 182 75 L182 16 Q183 7 222 -9 L241 -20 L241 -23 L237 -23 Q206 -9 183 -4 Q184 -42 144 -43 L131 -42 L129 -42 L109 -37 Q104 -33 91 -23 Q72 -33 57 -37 Q22 -37 9 -14 Q8 8 70 17 L104 21 L104 19 Q116 19 118 39 Q123 52 124 67 L122 73 L126 76 Q132 76 137 69 Q137 56 126 22 L166 15 Q169 15 170 64 Q169 82 152 82 L148 81 L148 83 Q117 79 118 75 L116 75 L113 87 Q113 90 137 126 L140 139 Q131 136 119 121 L117 121 L117 124 L115 124 Q115 119 111 119 L110 118 L105 129 L105 134 Q105 137 125 177 L127 186 L125 190 L125 193 ZM82 8 L80 11 Q19 3 19 -14 Q19 -21 43 -27 L45 -27 Q87 -19 87 -3 Q87 7 92 7 Q96 7 96 0 Q101 4 105 10 L105 12 Q87 12 82 8 ZM104 -11 L104 -13 Q104 -17 113 -19 L115 -17 L119 -19 L122 -17 L124 -19 L137 -16 L141 -18 Q141 -15 154 -15 Q167 -9 166 1 Q166 6 123 11 L104 -11 Z" /><glyph glyph-name="uni591F" unicode="&#x591f;" d="M63 180 Q88 171 89 148 L115 143 Q129 138 130 130 L130 127 Q126 28 119 20 Q114 13 102 4 Q98 -1 82 -12 L69 -18 Q65 -18 55 -23 L41 -25 L31 -25 Q10 0 9 21 L10 29 Q13 29 34 -1 L44 -9 L52 -8 Q76 -2 91 16 Q114 39 113 116 L110 125 Q92 124 58 101 L52 101 L45 106 L42 106 L38 101 L36 101 Q31 102 31 112 Q30 128 49 144 Q61 160 60 178 L63 180 ZM181 191 L189 192 Q197 189 197 182 L198 181 L195 169 L197 171 L208 172 L214 173 L214 171 Q220 171 221 166 L198 131 Q204 131 208 126 Q209 111 195 81 L211 86 Q223 86 223 77 L223 75 L222 74 L223 73 L223 71 L218 25 Q240 14 240 11 L239 8 L241 2 L229 -9 L211 -4 Q200 -27 175 -39 L171 -42 L160 -41 Q137 -37 136 -33 L136 -30 L152 -32 Q168 -31 192 6 L143 33 L138 37 L138 39 L142 39 L144 38 L145 39 L147 39 L158 36 L158 40 Q157 50 176 68 Q198 107 197 120 L196 122 Q191 122 175 90 Q159 70 150 69 L146 73 L146 76 Q144 96 188 129 Q207 162 207 166 L202 165 Q199 165 192 152 Q182 146 174 134 L170 132 L167 132 L162 134 L159 133 L157 134 Q160 139 159 148 L159 152 Q171 156 183 187 L181 191 ZM161 82 Q172 87 185 115 L185 117 L183 117 Q159 100 161 82 ZM73 100 L76 100 Q100 98 101 85 Q81 68 68 67 L63 64 Q50 67 43 48 Q39 39 26 38 L15 58 L16 71 Q15 93 21 94 L25 94 Q45 82 47 67 Q80 80 79 88 L75 89 L65 91 L58 92 L57 90 L54 90 L52 94 L73 100 ZM172 33 Q185 28 203 27 L212 70 L210 74 L208 74 Q196 67 172 33 Z" /><glyph glyph-name="uni5927" unicode="&#x5927;" d="M104 193 Q130 184 130 173 L130 168 Q124 161 118 110 L119 108 Q129 108 152 124 Q156 129 167 129 L172 127 Q187 123 187 113 Q183 96 166 96 Q154 87 113 73 Q85 -6 42 -31 Q33 -43 18 -42 Q18 -39 9 -36 L9 -28 L10 -23 Q15 -15 37 -4 Q76 36 81 65 L80 69 L74 69 L66 68 L61 69 L54 68 Q46 68 29 79 L87 96 Q93 96 95 114 L94 117 L98 164 L100 164 Q98 176 83 184 L104 193 ZM131 46 L152 33 L153 34 Q157 30 163.5 26.5 Q170 23 193 15 L218 8 Q228 4 240 -2 L241 -11 Q241 -20 216 -30 Q188 -30 174 -17 Q164 -16 137 18 L126 44 L127 46 L131 46 Z" /><glyph glyph-name="uni5BB9" unicode="&#x5bb9;" d="M107 192 L110 191 L113 192 Q151 188 155 182 Q159 176 159 168 L159 166 L157 163 L154 163 L146 162 L143 162 L124 157 L119 157 L115 160 L107 160 L107 162 Q123 162 130 171 L130 175 Q105 187 92 187 L91 188 L91 190 L92 191 L100 191 L107 192 ZM180 169 Q190 169 196 161 Q196 152 180 142 Q153 115 141 113 L141 111 L153 112 L153 108 Q153 106 126 86 L119 75 Q140 69 181 42 Q190 37 208 33 L217 36 L219 36 Q233 34 239 22 L242 19 L237 11 L233 7 L223 7 L219 6 Q185 9 177 16 L171 19 Q168 12 153 6 L133 -9 Q133 -12 146 -13 Q155 -15 155 -22 Q153 -31 125 -32 Q125 -34 102 -35 L99 -34 L99 -32 L114 -27 L113 -21 Q113 -4 138 11 L144 18 L144 21 L139 22 Q123 22 100 3 L92 -38 L86 -43 L84 -43 L83 -41 L79 -43 Q70 -43 70 -32 L70 -21 Q74 -12 79 13 L79 18 L75 18 Q35 -29 15 -29 L8 -24 L8 -19 L9 -17 L20 -19 Q31 -18 73 28 Q73 31 86 43 Q101 71 132 101 L132 103 L122 101 L122 103 L124 103 L117 112 L117 116 Q117 118 135 121 L151 137 Q139 130 102 125 L100 126 Q80 122 80 108 Q79 108 70 86 L67 84 L59 84 Q48 94 48 100 Q50 119 59 128 Q78 163 92 163 Q89 159 86 136 Q139 143 155 156 Q169 167 180 169 ZM111 117 L112 116 Q111 102 97 78 Q92 66 73 47 L70 49 L70 56 Q70 65 97 93 L111 117 ZM171 97 L181 86 L181 84 Q178 77 170 77 L166 82 L166 84 L167 91 L166 96 L167 97 L171 97 ZM115 74 L88 34 L87 28 Q92 28 97 11 Q125 31 148 31 L153 31 L159 30 L161 31 Q161 34 117 74 L115 74 Z" /><glyph glyph-name="uni5DF2" unicode="&#x5df2;" d="M147 192 Q166 192 173 176 Q173 158 160 148 L160 143 Q159 129 153 111 L151 92 Q144 75 133 75 Q98 64 72 46 L70 46 L40 59 Q31 48 24 16 L25 12 L24 8 Q24 -17 59 -17 L66 -17 Q133 -5 173 5 L193 12 Q220 28 233 67 L239 46 L242 37 Q242 -13 199 -20 Q110 -33 70 -43 L57 -43 Q11 -39 11 -15 L9 -7 L9 -3 Q9 31 35 76 Q47 96 50 107 L51 108 L57 108 Q64 106 63 100 L64 97 L51 79 L51 76 L55 73 L86 87 Q119 94 127 116 L129 137 L129 140 L126 143 Q126 140 97 133 Q73 133 63 156 L61 158 L63 159 L66 159 L68 158 L113 182 Q135 192 147 192 Z" /><glyph glyph-name="uni5E26" unicode="&#x5e26;" d="M190 192 Q204 192 209 175 L207 161 L209 161 Q221 161 230 154 L230 152 Q223 147 222 143 Q186 126 166 120 Q146 114 135 112 Q126 109 77 91 L72 87 L74 87 Q94 95 193 119 L227 121 Q238 118 242 112 L225 99 Q208 88 176 80 L174 79 L170 79 L167 71 L168 69 L190 72 L193 71 L195 72 Q233 72 233 50 L233 45 Q233 16 189 4 L174 3 L168 4 L167 2 L168 -4 Q168 -9 167 -10 L167 -14 Q158 -38 149 -41 Q140 -44 129 -44 Q129 -41 125 -41 L122 -31 L122 -22 L120 31 L120 43 Q111 43 98 39 Q85 35 75 30 L75 32 L77 34 Q69 35 69 37 Q69 43 122 61 Q130 69 126 89 L127 90 L127 92 Q47 71 25 56 L11 53 L9 55 Q9 67 36 77 Q58 93 98 109 L98 111 L97 116 Q88 116 77 112 Q74 111 58 111 Q48 113 48 121 L55 131 L64 130 L70 131 Q74 132 89 136 Q81 157 69 160 L60 158 L58 160 Q68 166 74 166 L77 166 Q89 166 108 143 Q108 140 116 140 Q124 140 125 143 Q122 161 115 161 L108 160 L107 162 Q116 170 122 170 L129 170 Q135 169 142 153 Q146 153 149 148 L156 148 Q162 152 184 155 L190 171 L190 181 L180 186 Q184 192 190 192 ZM157 134 L157 132 Q162 133 162 137 L157 134 ZM125 125 Q125 123 119 123 L118 122 L119 118 L127 121 L127 123 L125 125 ZM153 97 Q153 95 162 89 L166 87 Q194 99 201 105 L201 107 L153 97 ZM167 52 L168 51 L167 27 L167 11 L168 9 Q196 9 212 39 L212 48 Q212 61 193 61 L192 60 L190 60 L186 61 Q168 61 168 56 L167 52 Z" /><glyph glyph-name="uni5E2E" unicode="&#x5e2e;" d="M85 192 Q96 192 101 180 Q117 174 117 166 Q106 166 106 158 L106 155 Q106 152 111 149 L112 150 L119 150 L122 146 L119 141 L124 137 L124 133 Q124 130 95 105 Q95 102 90 95 Q85 88 67 71 Q45 49 37 49 L34 49 L25 53 Q22 56 47 85 L47 87 L22 74 L14 73 L9 76 L9 84 Q9 89 35 105 L70 126 L70 129 L50 129 Q38 129 38 141 Q38 146 44 148 L47 148 L48 145 Q79 145 80 154 Q78 159 59 169 L47 176 L52 180 L58 180 L68 178 L67 185 Q75 190 85 192 ZM196 191 L206 191 Q219 191 224 181 L219 160 Q219 156 239 139 L242 132 Q242 110 183 98 Q183 91 168 81 L163 81 L162 82 L160 82 L160 72 L162 72 Q187 78 198 78 Q224 78 224 47 L223 38 Q215 17 193 4 Q176 -3 160 -6 L159 -8 L162 -19 Q158 -42 137 -42 L132 -43 L127 -34 L129 -1 L129 18 L126 43 Q107 30 91 8 L80 0 L78 3 L78 6 Q93 76 106 76 Q106 78 112 84 L112 82 Q99 58 99 33 L132 58 Q139 58 139 81 L137 81 Q134 81 134 87 Q134 90 143 96 L146 95 L150 96 L152 95 L153 96 L153 98 L154 125 Q156 158 175 158 L176 159 L185 158 L190 159 L191 158 L191 155 L185 132 L185 130 Q184 122 184 114 L184 111 L188 111 Q224 119 224 130 Q194 146 194 158 L194 168 L196 178 L193 180 Q160 175 150 171 L149 172 Q152 178 196 191 ZM73 182 L71 181 L71 178 L73 178 L76 181 L75 182 L73 182 ZM102 126 L104 125 L106 125 L112 132 L111 135 L108 135 Q104 135 102 126 ZM67 122 Q24 97 24 89 Q70 102 70 117 L70 121 L67 122 ZM160 55 L159 21 L160 11 L159 7 L160 2 Q201 2 213 39 L214 50 Q214 63 200 69 Q160 65 160 58 L160 55 Z" /><glyph glyph-name="uni5E73" unicode="&#x5e73;" d="M161 192 L163 191 L164 192 L176 192 Q183 189 183 181 Q183 171 169 165 Q159 155 159 152 L161 134 L160 123 L173 125 L181 125 Q191 125 197 118 L197 115 Q197 106 163 88 L161 84 L161 71 Q168 72 183 72 L188 72 L197 73 L223 73 Q241 73 241 63 Q235 56 231 56 L223 53 L210 52 L203 52 L199 55 L210 61 L211 62 L211 65 L191 67 L171 67 Q161 67 161 65 L161 36 L160 23 L161 21 L160 20 L161 -8 L162 -21 Q161 -43 153 -43 Q141 -43 141 -36 L140 -25 L139 -22 L138 36 L139 52 Q139 63 137 63 L105 52 Q75 46 72 44 L16 29 Q8 29 8 35 L14 42 L20 41 L23 41 L32 44 Q44 49 58 53 Q72 57 81 60 Q90 63 105 66 Q139 81 139 87 L140 95 L140 97 L82 75 Q75 75 74 88 L75 93 L74 95 Q74 103 95 118 L132 156 Q126 155 110 154 Q104 154 98 161 L100 165 L101 164 Q120 169 151 190 L161 192 ZM112 111 L113 110 Q116 112 139 117 Q144 117 148 143 L146 143 Q118 120 112 111 ZM159 97 L159 95 Q167 98 171 104 L171 107 Q159 105 159 97 Z" /><glyph glyph-name="uni5E76" unicode="&#x5e76;" d="M160 148 L162 147 L167 148 L180 148 Q185 145 189 139 L187 133 L186 126 L185 123 L185 121 Q182 115 175 113 L171 114 Q150 107 135 104 L128 105 L125 105 Q115 106 107 98 Q122 95 121 77 L121 68 L120 66 L126 66 Q158 68 159 73 L166 107 L166 110 Q175 108 175 103 Q170 92 167 70 L207 66 L213 66 L218 68 Q229 68 241 56 Q236 48 222 48 L220 49 L168 57 L167 55 Q172 20 173 18 Q180 -18 191 -25 L198 -35 L197 -41 L198 -42 L184 -45 L172 -29 Q164 -25 165 -18 L168 -17 L168 -15 Q156 24 157 55 L156 57 L154 56 L153 57 L141 57 Q123 54 123 53 Q122 28 107 7 Q99 -14 92 -14 L85 -14 L80 -13 Q77 -12 76 4 L77 5 Q78 9 82 14 Q101 30 101 51 L100 52 L98 52 Q96 50 69 43 Q66 39 27 33 Q19 33 9 46 Q9 47 28 51.5 Q47 56 64 57 Q102 62 103 67 L105 80 L99 100 L118 109 L118 112 Q90 117 88 125 L83 133 L84 135 L95 132 L111 131 Q129 133 152 146 L160 148 ZM82 182 L85 183 Q99 177 100 172 L109 178 L110 179 L109 177 L108 161 L110 153 Q109 148 107 147 L104 147 Q101 146 88 161 L82 182 ZM166 159 Q129 141 166 175 L172 187 L177 194 Q183 197 192 193 Q200 184 190 171 L166 159 Z" /><glyph glyph-name="uni5E93" unicode="&#x5e93;" d="M146 191 L153 190 Q174 185 174 178 Q172 172 172 170 L171 168 L155 168 L142 172 Q135 179 114 183 L112 185 L112 187 L131 190 L146 191 ZM132 159 Q152 158 152 154 L152 151 Q145 145 103 120 Q76 98 41 18 Q25 -3 16 -3 L9 4 L14 22 Q16 22 16 19 L17 18 L19 18 Q35 34 70 92 Q78 107 105 131 L105 133 Q99 131 91 131 L89 131 Q80 131 80 139 Q80 143 84 148 L87 147 L85 146 Q87 143 91 143 Q110 146 132 159 ZM152 133 L160 133 Q164 133 165 124 L181 119 L182 112 Q182 104 160 104 L153 103 L136 72 Q163 78 163 91 L160 95 Q163 103 167 103 Q180 98 185 83 L193 81 Q193 74 181 70 L178 46 L197 47 L199 48 L214 48 L219 49 L225 49 L242 45 L242 40 Q238 35 232 35 L221 36 L219 36 L209 38 L203 38 L201 37 L199 37 L181 38 Q174 38 174 1 L174 -4 L175 -10 L174 -14 Q174 -19 175 -25 L175 -27 Q175 -33 169 -42 L157 -43 Q147 -36 148 -21 L149 -12 L150 31 Q145 29 124 23 Q86 9 77 8 L71 10 L71 19 Q76 24 96 30 Q134 51 146 62 L145 63 Q118 54 117 46 Q109 53 109 57 L109 62 Q125 81 134 99 L134 103 L132 102 L116 102 L106 105 L107 107 Q141 107 145 126 Q148 133 152 133 ZM110 30 L139 37 Q153 39 153 47 L153 55 Q136 44 113 36 Q113 34 110 34 L109 32 L110 30 Z" /><glyph glyph-name="uni5E94" unicode="&#x5e94;" d="M157 192 Q186 192 186 177 L184 169 L167 165 L145 165 Q124 171 111 184 L112 188 Q137 188 157 192 ZM161 156 L168 155 L184 155 Q187 155 187 151 Q182 131 172 131 Q123 110 98 50 L109 42 Q118 38 136 25 L136 16 L129 13 L118 13 Q97 27 92 41 Q72 12 70 11 Q31 -38 26 -40 L21 -43 Q13 -39 13 -33 L11 -29 L10 -17 L13 -10 L15 -10 L26 -20 L29 -20 Q56 7 97 78 Q118 108 118 111 L95 108 Q88 109 79 118 L81 125 L81 129 L84 129 Q84 125 87 125 L93 125 Q134 137 161 156 ZM222 89 Q233 89 235 75 L235 69 Q222 20 207 13 L191 -2 L191 -4 L193 -4 L216 -2 Q234 -2 242 -13 Q242 -33 223 -33 L218 -32 L211 -33 L203 -32 L189 -33 L184 -33 L178 -32 L173 -34 L168 -33 L104 -38 Q93 -38 85 -30 L85 -26 Q85 -14 109 -14 L113 -15 Q143 -9 168 10 Q202 27 219 80 L219 86 L218 87 L222 89 ZM143 75 Q175 57 175 49 L173 43 L173 41 L167 38 L159 38 Q140 48 140 73 L143 75 Z" /><glyph glyph-name="uni5E9E" unicode="&#x5e9e;" d="M124 193 Q180 180 180 171 Q180 166 165 159 L165 155 Q176 153 176 151 Q176 143 118 119 L102 106 Q86 88 82 54 Q82 46 64 10 Q46 -15 40 -20 Q26 -40 16 -40 L14 -42 L9 -37 L9 -12 Q9 -9 16 -9 Q22 -5 31 3 Q64 49 85 94 Q95 110 103 114 L103 117 L97 117 Q90 117 89 121 L89 124 L91 131 L96 130 Q125 142 130 149 Q135 153 141 167 Q113 185 113 188 Q120 193 124 193 ZM207 134 Q225 134 237 115 Q237 111 228 106 Q215 106 210 121 L205 132 L207 134 ZM140 121 L144 121 Q154 121 162 112 L162 97 L170 100 L172 100 L180 104 L198 95 Q196 83 189 79 Q138 62 138 47 Q152 47 156 23 L159 21 L187 52 L192 54 Q197 52 197 50 L186 25 Q177 3 162 -13 L162 -16 Q166 -18 179 -20 Q225 -20 225 10 L224 20 L225 21 L228 21 L233 16 L232 11 L235 -1 L242 -21 Q238 -43 224 -42 L221 -43 L219 -42 L218 -43 Q206 -40 190 -40 L186 -40 L184 -39 L183 -40 Q163 -40 146 -27 L135 -30 Q117 -30 113 -18 L110 -17 L96 -40 Q89 -40 86 -43 L85 -42 L83 -43 L81 -43 Q75 -40 75 -31 L75 -24 Q75 -17 95 10 L109 38 L109 42 L105 42 L103 41 Q95 46 92 51 Q92 64 106 64 Q133 75 133 92 Q138 100 138 109 L135 117 L140 121 ZM111 -9 L114 -11 Q138 3 138 12 L140 37 Q138 45 135 45 Q124 31 111 -9 Z" /><glyph glyph-name="uni5F00" unicode="&#x5f00;" d="M161 192 L163 191 L168 192 L181 192 Q186 189 190 182 L188 174 L187 166 L186 162 L186 160 Q183 152 176 150 L172 151 Q151 142 136 139 L129 140 L125 140 Q115 141 107 132 Q122 128 121 106 L121 95 L120 93 L127 93 Q159 95 160 101 L167 143 L167 146 Q176 144 176 137 Q171 124 168 97 L208 93 L214 93 L219 95 Q230 95 242 82 L242 80 Q237 71 223 71 L221 72 L169 81 L168 79 Q173 36 174 34 Q181 -10 192 -18 L199 -31 L198 -38 L199 -39 L185 -43 L173 -23 Q165 -18 166 -10 L169 -9 L169 -7 Q157 41 158 79 L157 81 L155 80 L154 81 L142 81 Q123 78 123 76 Q122 46 107 20 Q99 -5 92 -5 L85 -5 L80 -4 Q77 -3 76 17 L77 18 Q78 23 82 29 Q101 49 101 74 L100 75 L98 75 Q96 73 69 64 Q66 59 27 52 Q19 52 9 68 Q9 69 28 74.5 Q47 80 64 82 Q102 87 103 94 L105 110 L99 134 L118 145 L118 148 Q90 155 88 165 L83 174 L84 176 L95 173 L111 172 Q130 174 153 190 L161 192 Z" /><glyph glyph-name="uni5F88" unicode="&#x5f88;" d="M162 193 L173 193 Q191 184 193 179 L193 176 Q189 169 182 165 Q167 150 167 107 L167 103 L166 98 L167 97 L166 91 L166 62 Q166 52 158 52 Q158 50 148 49 Q139 41 128 41 L125 44 L125 53 Q125 57 135 74 Q135 82 126 90 L120 54 L121 53 L120 45 L120 38 L121 33 L120 31 Q120 22 125 22 Q134 22 220 36 L223 36 L227 28 L226 24 L227 22 L218 0 L218 -3 Q241 -8 241 -14 L241 -18 Q241 -23 236 -24 Q227 -11 212 -11 Q181 -37 130 -37 L122 -42 Q111 -42 104 -23 L104 -17 L106 -6 Q106 0 103 0 L82 -4 L79 3 Q83 7 83 15 L96 19 L98 18 L103 19 L107 19 Q107 55 117 92 L115 99 Q115 108 121 122 Q121 128 125 134 L125 139 Q129 150 133 152 L135 152 Q138 138 142 138 Q150 138 150 142 L159 183 Q139 183 111 164 Q131 193 162 193 ZM68 177 Q85 169 85 158 Q85 149 74 135 L72 132 L61 119 L61 107 L72 94 L72 88 Q72 73 44 33 Q53 30 53 23 L53 12 Q56 12 56 16 L59 16 Q55 -5 46 -32 L47 -34 Q45 -43 38 -43 L36 -43 Q32 -42 32 -36 L42 7 Q40 22 38 22 Q31 11 25 8 L19 6 L13 7 L10 4 L9 8 Q9 19 19 27 Q53 73 53 87 L53 90 L52 92 Q46 92 39 81 L36 81 L32 83 L29 82 L23 82 L13 83 L10 88 L10 92 Q10 101 30 120 Q41 135 55 154 Q59 156 60 162 L60 168 Q56 168 56 169 Q63 177 68 177 ZM143 114 L145 106 L147 106 L146 107 L147 118 L143 114 ZM149 9 L206 0 Q211 2 214 7 L214 9 Q214 12 203 13 Q149 13 149 9 ZM124 0 Q124 -7 146.5 -13 Q169 -19 190 -9 L192 -8 Q195 -8 195 -6 L194 -4 L193 -6 Q154 1 132 2 L129 1 L128 2 L126 2 L124 0 Z" /><glyph glyph-name="uni5F97" unicode="&#x5f97;" d="M189 193 L201 193 Q223 188 223 176 Q213 166 208 135 L210 133 Q203 115 204 102 L224 103 Q230 100 230 99 L230 97 Q230 95 204 82 L206 82 L224 86 Q236 84 236 82 Q236 74 215 66 L214 57 Q223 59 229 62 L234 61 L237 61 L240 58 Q235 54 214 51 Q210 45 210 23 Q210 5 217 -18 L221 -30 L217 -33 Q217 -36 179 -42 L178 -43 L164 -43 Q149 -43 106 -20 L106 -18 Q106 -17 111 -15 Q111 -23 139 -29 L150 -29 L151 -30 Q197 -24 197 -9 L194 20 L196 47 Q150 35 136 28 Q129 22 114 22 L111 26 Q111 33 133 38 L202 69 L202 71 L200 74 Q162 65 129 47 L122 46 L120 51 Q137 61 147 65 Q168 74 176 77 L177 81 L163 79 L138 69 L136 73 L136 77 Q139 82 139 86 L138 85 L135 85 Q131 86 131 92 L144 139 L143 144 L144 145 L143 151 L143 156 Q145 171 158 183 Q181 193 189 193 ZM153 157 L153 155 L157 157 Q162 153 168 141 L168 135 L186 140 L194 140 L194 162 L193 175 L186 175 Q153 170 153 157 ZM114 148 L117 145 L115 139 L117 138 L117 136 Q114 123 106 113 Q103 110 101 106 Q95 97 89 94 L79 86 L81 79 Q81 67 58 48 L54 44 Q63 41 63 39 L63 6 L64 -6 L63 -13 L64 -29 L64 -37 L59 -42 L58 -41 L53 -41 L50 -36 Q53 21 57 34 L56 39 L54 39 Q47 39 27 16 L14 11 L10 15 Q10 20 35 40 L59 67 L58 68 L57 67 L53 67 Q38 68 38 74 Q38 79 78 116 L81 117 L108 148 L114 148 ZM164 100 L167 100 Q185 117 189 123 L189 129 L187 129 Q168 127 168 120 L164 100 ZM168 92 Q191 95 191 105 L192 113 L168 92 ZM176 50 L176 48 L179 48 L200 52 L200 58 L176 50 ZM171 24 Q183 24 190 15 Q184 8 174 8 Q169 10 160 10 L117 11 Q117 15 171 24 Z" /><glyph glyph-name="uni6027" unicode="&#x6027;" d="M214 192 Q218 186 218 166 Q217 154 242 146 L242 144 Q231 129 218 126 Q215 120 214 109 L212 82 L213 75 L219 76 L228 75 Q238 67 237 59 Q237 55 223 42 Q209 22 208 15 Q207 0 219 -1 Q232 -2 233 -23 Q223 -33 205 -32 L198 -30 L179 -28 L162 -30 Q151 -29 145 -20 L146 -12 Q147 0 168 9 Q190 29 191 38 L186 39 L178 38 Q156 44 156 52 L155 53 L156 55 L158 58 Q191 55 192 69 L192 75 L193 91 L194 97 L193 105 L195 114 L192 114 Q177 115 139 67 Q120 68 112 82 L106 82 Q105 78 102 78 Q94 78 83 91 L76 54 L74 38 L75 -1 L74 -3 L76 -27 L75 -28 L76 -36 Q75 -41 68 -43 Q55 -42 56 -32 Q55 -22 56 -6 L53 32 L50 33 L25 20 L22 20 Q9 21 8 43 Q20 70 21 96 L18 106 L27 109 Q38 108 46 84 L46 70 Q61 69 69 139 L68 142 L68 151 L70 175 Q78 182 84 182 Q87 181 87 121 L85 114 Q84 110 104 101 L110 92 Q118 93 129 111 Q151 131 152 147 L152 154 L150 158 L153 160 Q177 159 180 127 L187 126 Q197 132 198 136 L200 159 L199 167 L199 184 Q207 192 214 192 Z" /><glyph glyph-name="uni60C5" unicode="&#x60c5;" d="M204 193 Q213 185 222 182 L223 180 L215 175 Q215 171 209 171 Q205 171 203 159 L203 157 L225 150 L227 144 Q227 141 200 120 L201 118 Q225 136 239 137 Q242 137 242 133 Q240 126 200 103 Q184 83 184 77 L186 77 L207 85 L212 84 L215 86 Q233 84 233 75 L234 72 Q234 67 228 63 L227 47 L228 46 L227 32 L228 18 L229 13 L228 7 L232 -20 L232 -29 Q227 -43 213 -43 L208 -42 L202 -43 L199 -43 L197 -42 L196 -43 Q168 -41 167 -34 L167 -30 L170 -23 L169 -21 L170 -20 L172 -20 Q178 -25 181 -32 L189 -33 L195 -33 Q218 -33 218 -19 Q216 32 203 65 L200 65 Q172 53 173 35 Q188 35 200 25 Q199 21 191 19 Q191 14 181 11 Q187 5 200 2 L202 -3 L195 -10 Q184 -10 175 9 L178 17 Q177 21 169 22 Q162 -20 155 -20 L146 -24 Q134 -25 131 -6 L131 -4 Q139 24 170 90 L138 69 L132 69 Q131 86 151 92 Q168 103 168 108 L142 130 Q143 135 184 153 L186 155 L185 157 L186 163 L186 168 L176 166 L156 169 L156 171 Q184 172 199 193 L204 193 ZM79 163 Q84 157 84 148 L85 140 L83 133 L82 114 L83 104 L83 87 L80 53 L81 50 L80 42 L79 38 Q76 1 77 -5 L75 -11 L68 -15 Q59 -11 53 2 L54 3 L55 35 L59 70 L57 71 L52 71 L27 36 L14 32 Q12 41 9 41 L25 77 Q28 83 27 93 L27 103 L30 103 Q35 96 38 80 L37 70 Q54 86 66 125 L68 150 L69 161 L79 163 ZM201 146 L194 126 Q209 134 208 143 L208 146 L201 146 ZM165 128 L165 126 Q167 123 176 120 L180 135 L180 137 Q170 132 165 128 ZM100 95 Q118 95 122 81 Q115 76 109 75 Q98 84 95 94 L100 95 Z" /><glyph glyph-name="uni6211" unicode="&#x6211;" d="M124 193 L128 193 Q152 193 161 174 L148 144 L146 118 L148 117 L167 121 L176 121 L182 117 L189 109 L189 105 Q189 104 179 99 Q171 103 161 103 Q149 99 146 91 L145 80 L157 46 Q166 53 174 78 L179 79 L189 66 Q187 52 170 22 Q198 -12 211 -12 Q218 3 218 26 L216 35 L216 42 L218 44 L220 44 Q225 44 234 -13 L242 -31 Q242 -40 223 -43 Q212 -39 199 -29 Q171 -9 161 10 L144 3 L135 1 Q131 4 123 4 L117 12 L117 14 Q117 16 130 16 Q147 30 147 32 L130 80 L131 84 Q129 93 123 93 Q87 88 87 80 L86 74 L87 73 L87 71 L86 70 L87 69 L87 67 L86 61 Q87 54 88 54 Q96 59 104 61 Q105 65 113 69 L118 69 L120 65 Q120 55 88 27 Q88 14 98 -9 L98 -15 Q98 -16 88 -22 Q42 -12 42 -5 L41 -6 L39 -6 L37 -4 L37 2 Q37 13 72 46 L72 59 L73 64 L72 65 L73 70 L72 78 Q55 65 49 46 L38 44 Q21 47 9 65 Q9 68 23 71 L25 69 Q31 69 75 93 L82 123 L79 127 L83 129 L87 129 Q91 127 93 123 L89 99 Q128 111 128 121 L128 131 L134 169 Q134 174 122 191 L124 193 ZM107 166 Q127 166 128 156 L124 149 L126 146 Q126 138 109 138 L98 138 Q86 138 75 147 Q67 149 63 157 Q67 161 107 166 ZM191 149 Q215 145 215 141 L218 137 Q212 123 203 123 Q192 123 192 129 Q192 134 182 144 Q184 149 191 149 ZM72 7 L71 4 L72 3 L75 3 L75 6 L72 7 Z" /><glyph glyph-name="uni6216" unicode="&#x6216;" d="M119 192 L128 192 Q147 184 147 175 L147 170 L146 165 Q153 158 159 158 L160 156 L159 153 L160 148 L160 146 Q156 140 144 133 L143 114 Q143 88 159 42 Q161 42 168 78 L172 80 Q181 80 185 71 Q175 61 171 26 Q171 8 201 -9 L204 -9 Q210 -9 217 25 L218 39 L217 42 Q218 47 224 49 Q231 46 233 38 L234 37 L233 29 L233 20 Q233 15 240 -1 L241 -9 L242 -28 Q230 -36 221 -36 L215 -36 L203 -33 Q178 -22 167 -9 L165 -6 L159 -2 Q138 -39 122 -39 Q103 -37 103 -32 L103 -30 L107 -26 L116 -30 Q139 -18 150 8 Q150 13 136 33 L123 75 Q119 96 118 119 L119 120 L118 122 L89 109 Q67 93 59 64 L61 64 Q89 83 98 83 Q111 83 111 75 Q102 60 78 32 L83 32 L96 33 Q103 31 103 29 L103 26 Q101 23 98 20 L75 13 Q71 15 67 19 L65 26 Q65 32 84 62 L83 63 Q57 53 57 19 L49 19 Q46 19 44 32 L44 41 L57 77 L77 109 L73 106 L58 106 Q52 106 43 119 L44 120 L44 122 L49 120 Q68 120 119 150 L120 162 L120 167 Q119 183 115 183 L110 181 L110 184 L119 192 ZM191 167 L193 167 Q200 167 212 150 L213 141 Q209 133 203 133 L194 133 L189 139 L189 141 Q188 153 188 162 L188 165 L191 167 ZM98 3 L102 4 Q111 1 111 -2 Q106 -8 98 -13 L95 -13 L94 -11 L93 -13 L91 -13 L85 -11 Q60 -20 27 -40 L16 -44 Q11 -44 9 -30 Q9 -23 17 -22 L21 -24 Q57 -10 87 -1 L98 3 Z" /><glyph glyph-name="uni6218" unicode="&#x6218;" d="M47 192 Q52 187 68 179 Q84 162 84 145 L84 128 L88 128 L106 130 L108 131 Q123 131 123 117 L125 114 Q112 101 106 101 L96 97 L85 93 Q80 93 76 49 L73 42 L83 42 Q95 42 100 45 Q125 40 125 34 L125 29 Q121 22 112 22 L100 13 L100 10 Q100 8 103 8 L104 7 L104 0 Q104 -9 87 -12 L85 -12 L47 -23 L44 -21 L44 -13 Q44 -5 58 0 Q88 21 88 29 L87 30 L83 30 L76 29 Q76 31 73 31 L42 26 L40 30 Q49 36 64 40 L64 42 Q57 44 55 45 L53 45 Q43 60 43 68 L51 116 L50 122 L50 147 L48 167 L44 191 L47 192 ZM158 187 L163 187 Q182 179 182 165 Q174 141 175 115 L196 126 L207 127 Q207 125 212 125 L219 119 L219 113 Q210 108 175 100 L174 93 L174 83 L172 71 L178 43 Q184 46 198 80 L200 82 L205 77 L205 75 Q203 73 201 60 L188 18 Q202 -13 216 -13 L218 -13 Q222 -13 226 15 L227 30 L231 13 L238 -21 L241 -30 L241 -36 Q241 -39 237 -39 L231 -40 L226 -40 Q198 -19 179 7 Q164 -5 155 -5 L151 -5 Q146 -5 132 5 Q132 7 150 13 Q170 26 170 33 Q162 55 162 75 L162 96 L134 87 L128 88 L121 88 L121 91 Q158 106 162 110 L163 114 L162 115 L163 121 L163 139 L164 140 L163 141 L163 143 L164 148 L164 156 Q162 171 150 184 Q151 187 158 187 ZM210 179 L218 179 Q218 176 230 165 L231 161 L223 151 L218 152 L216 151 Q212 155 208 176 L210 179 ZM9 31 L13 31 Q19 30 40 5 L39 -3 L39 -19 L35 -38 L36 -39 L36 -41 L34 -44 Q26 -44 21 -15 L19 3 Q18 12 9 29 L9 31 Z" /><glyph glyph-name="uni6240" unicode="&#x6240;" d="M103 184 Q113 179 113 174 Q92 157 83 146 L73 135 L66 130 L63 130 Q51 130 47 140 L45 150 Q50 155 55.5 158 Q61 161 67 170 Q70 173 81 193 L95 193 L103 184 ZM193 182 L203 182 Q218 178 218 175 L217 171 Q220 169 205 162 L154 172 L153 175 Q153 177 193 182 ZM146 172 Q159 166 161 158 Q166 152 170 130 L169 126 L171 125 Q188 135 214 135 L218 134 L225 135 L233 135 L241 130 L241 127 Q241 124 225 120 Q214 94 214 27 Q214 -4 225 -30 L227 -35 L225 -40 L224 -39 L222 -39 L218 -43 Q206 -32 203 -17 L203 -11 L201 31 L201 36 Q206 109 214 126 L211 127 Q174 127 169 108 Q169 101 167 101 L168 100 Q164 65 156 29 Q156 16 149 16 L146 12 L141 11 L138 11 L134 23 L134 28 L139 55 Q153 111 153 131 L152 134 L153 136 Q153 143 141 169 L146 172 ZM32 130 L34 130 Q34 124 45 118 Q60 103 60 94 L62 94 Q96 111 113 111 Q123 107 124 104 L124 101 Q113 89 106 89 L106 86 Q114 86 117 80 Q115 65 110 65 L109 68 L70 53 L67 53 Q64 53 63 63 Q70 75 84 80 Q93 92 92 95 Q59 88 59 69 L60 63 L60 54 L59 53 L60 50 Q60 48 54 17 Q52 8 41 -2 L28 -10 Q17 -9 13 -7 Q4 2 16 23 L36 47 L39 76 Q39 101 25 116 L25 123 Q29 130 32 130 Z" /><glyph glyph-name="uni6311" unicode="&#x6311;" d="M176 191 Q188 191 199 170 Q198 160 188 144 Q167 89 166 45 Q164 -13 181 -13 Q225 -4 232.5 12.5 Q240 29 242 48 L242 -21 Q241 -30 181 -38 Q156 -37 156 22 L156 26 L158 68 L160 68 L158 70 L177 167 L178 169 L170 190 L171 192 L176 191 ZM87 193 L93 185 Q85 174 85 160 Q84 152 99 136 L99 128 L81 104 Q72 101 71 68 L72 61 L86 75 L87 74 L70 43 Q74 5 82 -32 Q82 -41 75 -44 Q72 -41 64 -41 L64 -39 L60 -41 Q39 -31 27 -22 L16 -31 Q12 -31 9 -22 Q9 -19 24 -3 L61 49 L63 54 L64 88 L63 89 L63 91 L51 88 Q40 89 30 108 L31 109 L34 109 L35 108 Q73 133 74 154 L77 176 L76 181 L87 193 ZM149 149 L151 148 Q141 97 136 62 L134 39 L125 -3 L124 -6 L122 -14 L117 -24 L113 -27 L111 -27 Q107 -20 111 -4 L113 8 L115 16 L115 23 L106 15 Q99 16 97 48 Q114 76 115 89 Q115 98 106 113 L110 116 L116 116 Q127 112 126 103 L113 64 Q123 69 139 132 Q145 146 149 149 ZM188 132 L194 132 Q204 132 212 107 L212 105 Q209 90 201 91 L196 93 Q192 87 192 81 L192 77 Q192 69 201 48 L195 32 Q178 33 179 58 L178 60 Q179 69 192 93 L193 98 L186 128 L186 130 L188 132 ZM61 32 L31 -16 Q31 -20 44 -21 Q54 -21 65 -12 Q64 32 61 32 Z" /><glyph glyph-name="uni6574" unicode="&#x6574;" d="M84 192 Q94 182 94 165 Q104 165 112 147 Q112 144 109 144 L94 146 Q90 142 89 130 L94 130 Q106 136 114 136 L117 126 Q94 106 94 95 L84 76 L86 75 L84 64 L79 38 L75 38 L75 61 Q70 61 68 52 Q54 34 37 22 Q28 31 28 35 Q28 38 35 38 Q48 47 63 66 L61 66 L56 65 L55 66 L50 65 Q46 56 44 56 L37 72 Q46 134 60 134 Q65 134 84 150 Q83 154 71 154 L61 154 L37 150 L34 154 Q48 168 66 168 L84 168 Q84 183 75 188 Q75 191 84 192 ZM172 187 Q184 187 187 157 L189 153 L192 153 Q202 162 207 162 L216 162 Q222 159 222 154 Q202 146 202 116 L199 109 L200 106 L197 94 Q197 91 213 84 Q213 75 220 66 Q220 64 215 64 L184 67 L164 46 L166 38 Q152 31 145 23 L145 20 L161 23 Q169 20 169 18 Q169 10 158 6 L148 8 Q140 5 140 -6 L140 -14 L145 -15 L151 -15 L153 -14 L207 -15 Q235 -19 235 -26 L241 -36 L241 -39 Q241 -41 230 -44 Q207 -36 203 -36 Q184 -32 174 -30 L132 -32 L107 -32 L55 -41 L47 -41 L12 -32 L9 -32 L9 -29 L21 -29 Q50 -25 82 -18 L82 -2 L81 2 Q83 14 84 14 L88 14 L88 10 Q97 -17 99 -17 L122 -17 L123 -10 L130 16 L130 24 Q93 26 91 33 Q138 41 138 49 Q143 51 143 53 Q130 57 130 66 L132 66 Q142 60 149 60 Q163 60 174 79 L151 99 Q166 95 180 95 L182 95 Q186 95 193 135 L189 135 L171 117 L164 111 L161 111 Q155 111 153 125 Q153 128 166 143 Q174 153 174 173 Q174 179 168 185 L172 187 ZM55 120 L56 113 Q76 121 84 128 L84 135 L79 135 L55 120 ZM51 94 L51 82 Q82 99 82 110 L82 113 Q51 103 51 94 ZM107 82 Q117 77 120 66 L119 65 L117 65 Q101 77 95 77 L95 80 L102 80 L107 82 Z" /><glyph glyph-name="uni65B0" unicode="&#x65b0;" d="M85 193 Q109 191 110 184 Q110 181 108 175 Q106 172 97 171 Q88 179 59 186 L58 189 L62 190 Q71 192 85 193 ZM201 164 Q209 163 209 160 L209 157 Q179 144 176 131 L178 66 L179 63 Q197 87 224 100 L226 101 L227 102 L241 100 Q242 85 213 77 L210 75 Q195 67 189 53 L176 24 Q164 11 157 10 L155 10 Q152 11 151 18 L151 25 Q167 48 166 79 Q169 138 172 144 L175 150 L194 162 L201 164 ZM85 154 Q95 154 106 146 Q104 135 87 125 L73 106 L109 114 L118 110 L111 102 L111 100 L120 101 L123 97 L118 87 L119 86 L120 84 Q120 81 108 77 Q98 54 99 47 L100 45 L131 71 L133 69 Q96 41 97 19 Q99 -13 86 -21 L77 -24 L59 -6 L56 -2 Q56 9 89 37 L89 44 Q76 33 67 32 L64 35 L65 44 L63 45 L63 47 Q64 53 77 67 Q37 50 18 37 L16 37 Q10 39 10 46 L16 51 L20 49 Q34 60 94 94 L95 100 L45 87 L44 91 Q43 99 73 133 Q48 133 47 140 L48 143 L50 142 Q62 143 85 154 ZM212 63 L214 63 L220 38 L221 17 L223 9 Q225 -28 209 -43 L206 -43 L196 -41 L187 -43 Q187 -40 196 -38 Q212 -26 211 -5 Q214 19 212 61 L212 63 ZM77 0 Q77 -2 83 -4 Q90 -4 89 23 L87 23 Q77 11 77 0 Z" /><glyph glyph-name="uni65F6" unicode="&#x65f6;" d="M190 192 L193 192 L207 189 L219 174 Q234 171 241 162 Q225 150 217 149 L210 147 Q206 127 207 86 L207 71 L205 31 L206 28 L201 -27 Q189 -42 166 -43 L162 -43 Q131 -36 118 -19 L95 10 L94 17 L94 19 L102 34 Q107 32 113 5 Q127 -16 146 -15 L149 -15 Q191 -12 190 8 Q196 33 195 122 L194 124 L195 131 L194 146 L190 151 Q158 149 101 111 L101 108 L99 108 L101 106 Q97 38 86 38 Q76 23 66 23 L62 23 Q54 22 46 34 L36 34 L28 27 L22 21 Q18 26 13 26 L10 40 L10 71 Q18 140 29 140 L31 140 Q36 137 38 131.5 Q40 126 43 92 L43 80 L44 77 L46 73 Q57 92 86 118 L87 137 Q87 154 77 154 L74 154 L62 151 Q61 156 85 169 Q108 169 108 157 L105 129 Q147 154 190 164 L193 167 L193 175 Q193 178 185 182 L185 185 L190 192 ZM69 53 L72 43 L75 43 Q82 48 83 93 Q68 77 69 53 ZM144 84 Q154 85 166 82 Q172 82 183 68 L183 61 Q183 57 169 51 Q165 51 148 59 Q133 64 128 72 L128 74 Q128 80 144 84 Z" /><glyph glyph-name="uni662F" unicode="&#x662f;" d="M112 192 Q124 192 131 185 L131 183 Q115 153 115 135 L116 125 L115 119 L116 112 L115 109 L116 107 L112 78 L124 78 Q152 76 152 64 Q136 52 120 46 L78 33 L78 31 L93 31 Q135 29 135 19 Q135 10 80 4 L80 7 Q116 10 127 19 L127 21 L111 25 L54 19 L52 21 L52 24 Q52 34 92 43 Q128 55 135 67 L128 70 Q93 62 42 43 L37 43 Q27 46 27 55 Q27 64 65 68 Q93 74 93 76 L87 82 L83 82 L69 73 L61 73 L64 74 L57 91 L57 100 Q54 119 52 130 L54 147 L53 159 L54 168 L60 173 L73 170 Q95 188 112 192 ZM78 153 Q78 144 84 139 L97 137 L105 137 L105 139 L111 171 L111 179 Q78 170 78 155 L78 153 ZM92 127 L84 119 L80 105 L83 104 L88 93 L92 93 Q101 106 101 118 L101 121 Q97 127 92 127 ZM185 31 Q190 31 203 17 Q198 9 187 9 Q181 9 181 27 Q182 31 185 31 ZM84 7 L84 5 L60 3 L56 3 L56 6 L58 6 L84 7 ZM45 5 L60 5 L60 2 L45 2 L45 5 ZM27 2 L29 3 L52 5 L52 2 L29 0 Q30 -3 81 -12 Q130 -24 193 -27 Q193 -28 215 -29 L233 -28 Q241 -34 241 -37 L229 -43 L207 -44 L147 -39 Q70 -20 44 -15 L18 -10 L10 -5 Q17 3 27 2 Z" /><glyph glyph-name="uni66F4" unicode="&#x66f4;" d="M132 192 Q148 190 148 178 L150 167 L142 155 Q135 150 122 145 Q113 135 113 128 L116 126 Q120 129 140 130 Q154 130 154 115 L154 108 Q154 56 120 46 L109 46 Q104 46 101 14 Q157 -10 167 -10 Q238 -19 238 -22 L241 -30 L235 -38 L228 -42 L197 -44 L188 -44 L187 -43 L173 -42 L173 -40 L172 -42 Q150 -41 113 -17 Q93 -5 89 -5 Q60 -38 39 -38 Q37 -40 16 -43 Q10 -41 10 -35 L10 -32 L13 -30 Q24 -31 25 -34 Q51 -34 75 -1 L75 4 Q53 13 40 33 L41 37 L53 32 L64 92 Q74 114 92 135 Q92 137 75 141 L59 151 L59 153 Q61 157 78 163 L113 181 Q116 187 132 192 ZM64 58 L66 58 Q74 90 101 123 L101 128 Q65 101 65 72 L64 58 ZM107 94 L111 94 Q116 97 126 97 L128 94 Q114 80 107 75 L104 69 L104 65 L106 65 Q112 68 113 74 Q116 74 116 78 L117 79 L122 79 L123 74 L111 60 L111 58 L113 58 Q130 58 140 77 Q145 93 145 107 L145 113 Q145 121 136 121 L134 121 Q107 121 107 94 ZM84 82 L84 80 L86 80 Q98 83 98 101 L100 106 L97 106 Q86 95 84 82 ZM66 29 Q70 21 85 21 L90 40 Q90 43 85 43 L85 49 Q88 63 90 63 L91 62 L94 70 L94 77 Q75 77 75 48 L66 29 Z" /><glyph glyph-name="uni6700" unicode="&#x6700;" d="M147 191 L149 192 Q169 188 169 184 L169 180 Q146 121 134 109 L134 107 L136 107 Q141 111 151 111 Q158 111 160 106 Q158 101 114 88 Q84 70 74 47 Q64 29 55 10 L53 2 Q49 -15 32 -17 L28 -14 Q33 20 72 69 Q78 75 95 87 L93 87 Q57 75 29 61 Q20 57 16 57 Q10 59 10 62 L10 65 Q17 65 45 80 Q126 105 126 106 L112 111 Q112 107 99 106 L93 106 L89 105 Q79 112 79 115 L81 127 L73 177 L74 178 L76 178 Q103 165 103 154 Q106 154 105 150 L132 161 L136 161 L144 159 Q150 171 150 179 L146 183 Q131 184 113 173 Q131 191 147 191 ZM108 143 Q110 129 114 122 Q138 130 139 148 L124 138 L124 140 Q133 150 132 153 Q108 147 108 143 ZM179 75 L185 75 Q193 74 192 71 L174 15 L172 12 L172 9 L187 3 L239 -8 L241 -9 L241 -12 L232 -21 L197 -18 Q179 -17 162 -4 Q143 -22 126 -21 L125 -20 L120 -21 L105 -20 Q102 -43 90 -43 Q86 -36 86 -32 L86 -30 Q87 -27 90 -27 L90 -20 L89 -12 L61 -37 L49 -36 Q47 -36 44 -29 Q44 -15 63 1 Q71 14 85 43 L86 48 L89 49 Q91 49 91 45 Q90 24 85 8 Q101 19 101 33 Q108 58 108 70 Q103 72 103 75 L107 75 Q118 73 118 70 L118 66 L114 44 L109 12 Q113 -12 118 -12 L120 -12 Q139 -12 150 12 Q126 32 126 36 L153 20 Q162 43 162 57 L161 58 L138 55 L138 58 Q152 60 166 72 L179 75 Z" /><glyph glyph-name="uni6709" unicode="&#x6709;" d="M135 192 Q144 192 147 173 Q135 161 135 150 Q155 159 177 167 Q187 167 195 161 L195 152 Q159 110 151 91 Q184 115 209 115 Q237 114 237 49 Q240 31 241 -3 Q227 -45 189 -44 Q183 -41 171 -38 Q159 -36 140 -29 L135 -24 Q135 -21 146 -20 L157 -22 Q213 -21 217 -4 Q221 2 221 13 Q216 78 211 95 L204 99 L202 99 Q183 100 154 74 Q154 70 145 63 L154 65 L156 65 Q174 60 174 58 L174 54 Q166 44 155 44 L153 39 L155 35 L153 35 Q157 25 164 20 L164 15 Q159 8 151 9 Q143 13 143 15 L145 44 Q150 45 150 50 L150 56 L141 57 L128 39 Q128 30 114 -9 Q111 -32 99 -35 L95 -35 Q83 -25 83 -12 L89 4 L93 16 L110 54 Q116 68 151 127 Q155 127 159 139 Q116 122 115 102 Q103 75 76 49 Q64 40 26 34 Q14 45 9 62 L9 66 Q10 77 40 89 Q109 130 110 146 L112 161 L110 163 L90 158 L90 161 Q90 174 102 181.5 Q114 189 135 192 ZM15 62 L15 57 Q20 48 25 46 L31 46 Q61 45 88 81 L96 104 L94 104 Q69 87 31 72 Q15 65 15 62 Z" /><glyph glyph-name="uni672C" unicode="&#x672c;" d="M187 191 Q210 188 208 171 Q207 167 190 163 L173 143 L204 148 Q214 143 214 133 Q206 129 196 126 Q196 124 156 116 L145 113 L134 98 L134 96 Q178 100 189 99 L208 99 Q245 87 241 74 Q183 54 178 41 L178 35 L187 43 L198 43 L204 42 Q213 40 212 37 L212 35 Q211 32 187 30 Q177 25 176 23 L176 0 L181 -34 L179 -41 Q178 -44 166 -44 Q156 -35 156 -33 L156 -26 L161 -12 L162 20 Q127 12 120 8 L116 9 Q106 16 108 23 L108 27 L167 54 L171 79 Q166 80 167 82 Q168 85 173 84 L174 86 L179 86 Q184 83 183 78 L181 66 Q179 59 182 58 Q221 72 223 82 Q214 89 203 91 L191 92 Q123 89 115 83.5 Q107 78 89 59 L69 40 Q62 32 44 16 L38 16 L26 19 Q17 20 10 39 Q25 45 60 81 L93 113 Q77 113 79 124 L81 132 L107 134 L124 142 Q145 160 158 186 Q163 191 173 192 L187 191 ZM148 29 Q161 31 161 32 L162 35 L161 36 Q158 36 148 29 Z" /><glyph glyph-name="uni673A" unicode="&#x673a;" d="M64 192 L70 192 L74 187 L74 175 L68 135 Q71 145 81 145 L83 142 L83 138 L82 137 L83 135 L83 131 Q83 118 67 99 Q62 91 60 44 L61 43 L63 43 Q94 101 98 115 L97 116 L97 118 Q105 133 114 133 L118 128 Q118 67 97 6 Q95 -8 92 -8 L82 -3 Q77 -3 74 10 L74 17 L92 85 Q67 41 67 17 Q63 17 63 0 L63 -4 L67 -32 L59 -39 Q49 -25 49 -20 Q30 -39 25 -39 L21 -39 Q16 -39 10 -9 Q10 -5 18 0 Q38 44 38 49 Q46 70 48 86 Q36 76 26 74 L21 74 Q13 80 13 90 L15 90 L15 86 Q29 86 55 124 L67 187 L64 190 L64 192 ZM149 176 L159 176 Q174 172 174 157 L159 105 Q151 68 151 41 Q156 -11 169 -11 L181 -14 L209 -6 Q229 33 229 74 L231 74 L229 50 L230 43 L229 41 Q241 1 241 -13 Q234 -41 217 -41 L214 -41 L179 -44 Q147 -44 140 27 L138 50 L149 150 L148 152 Q142 150 127 150 L126 152 Q145 176 149 176 Z" /><glyph glyph-name="uni6742" unicode="&#x6742;" d="M95 191 L102 192 L104 192 Q127 188 127 177 L129 172 L136 175 Q156 170 159 165 Q156 154 146 133 Q139 116 140 104 L139 98 Q150 99 164 89 Q155 77 144 73 Q139 69 139 65 L139 63 Q169 65 169 68 L177 68 L186 69 Q195 69 204 62 L198 59 L197 60 L196 59 L173 57 L165 58 L158 59 Q136 57 136 46 L124 -23 Q116 -30 112 -29 L77 -28 L71 -28 Q54 -42 47 -43 L44 -43 L36 -41 L28 -36 Q32 -21 51 -4 Q61 0 89 39 L91 40 L93 40 L97 38 Q99 13 73 -19 L73 -22 L90 -20 Q114 -20 113 12 Q117 27 114 48 Q86 44 87 39 L84 40 Q70 40 20 15 L17 14 Q11 14 10 18 Q17 31 33 32 L94 52 Q115 56 115 58 L116 61 L116 71 Q110 77 110 81 L121 86 Q121 83 131 80 L137 75 Q137 78 141 78 L142 79 L142 82 Q120 80 117 111 Q118 121 129 153 Q114 153 103 127 Q88 103 69 63 L64 62 L57 63 Q49 63 45 88 Q38 105 39 111 Q46 126 89 149 L97 160 Q100 173 99 180 Q97 187 91 187 L95 191 ZM50 110 Q53 91 58 92 L60 92 L72 117 L77 129 L75 129 Q54 116 50 110 ZM153 16 Q183 9 215 -8 Q236 -13 242 -28 L237 -34 Q234 -36 229 -38 Q210 -23 190 -21 Q173 -21 173 -17 L187 -17 L198 -15 L198 -13 Q194 -13 153 14 L153 16 Z" /><glyph glyph-name="uni6743" unicode="&#x6743;" d="M62 192 Q73 192 73 171 L70 155 L70 147 L72 143 L81 143 Q89 139 87 129 Q87 119 72 106 L72 104 L73 68 Q76 68 100 108 Q104 111 112 119 Q153 139 173 158 L177 159 Q186 157 186 153 L186 145 L162 49 Q162 28 234 8 Q241 4 241 1 L241 -3 L235 -10 Q235 -16 220 -20 Q208 -20 192 -17 Q186 -14 171 -2 L150 16 Q116 -13 85 -13 L80 -8 L78 -7 L78 -3 L83 1 Q91 1 91 -2 Q112 -2 139 34 Q131 46 115 94 Q106 94 96 68 Q86 50 70 23 Q57 -4 57 -14 L59 -39 L49 -44 Q44 -44 40 -15 Q32 -31 23 -31 L11 -21 L10 -8 L10 5 Q39 43 40 57 Q44 57 48 88 L39 85 Q22 85 17 94 L18 97 L19 96 L21 96 Q53 113 53 148 L56 169 L53 183 L53 187 Q53 192 62 192 ZM118 96 Q122 96 144 65 L150 62 Q162 114 161 124 Q127 108 118 96 Z" /><glyph glyph-name="uni6765" unicode="&#x6765;" d="M149 192 Q159 191 162 180 L157 163 L156 159 Q156 156 174 151 L177 148 Q146 130 146 120 L145 107 L179 115 L190 114 L194 110 Q194 104 151 79 Q140 76 139 68 L140 67 Q187 76 193 81 L209 79 Q223 76 222 73 Q217 69 217 66 Q184 66 156 60 L141 55 L139 51 L139 49 Q139 41 140 36 L141 37 L143 37 L236 -8 L241 -16 Q239 -21 231 -26 L227 -26 Q211 -22 160 15 Q146 30 140 31 L142 -13 L142 -16 Q141 -29 123 -28 Q111 -23 108 -21 L87 -13 Q83 -13 59 -24 L40 -35 Q25 -44 20 -43 Q20 -41 11 -37 L11 -32 Q47 -7 47 -3 Q69 12 99 42 Q80 38 37 17 Q29 17 28 14 Q15 16 15 21 Q17 27 25 31 L28 31 L28 29 Q68 46 103 57 L116 61 L118 60 Q127 63 128 66 L131 73 L131 84 L129 87 L90 67 Q82 73 82 74 Q83 85 105 101 Q136 130 136 133 L134 134 Q123 131 106 132 Q100 134 95 142 L97 142 L103 139 Q124 137 142 151 L142 160 Q144 181 140 181 L138 181 L135 180 L134 182 Q141 193 149 192 ZM114 93 Q133 99 134 105 L136 111 L135 115 Q128 115 122 106 Q118 105 114 93 ZM142 92 L143 79 Q172 98 175 106 L174 107 Q143 98 142 92 ZM93 -4 L92 -8 Q120 -8 123 -1 L126 10 L126 12 L127 18 L127 39 Q101 12 93 -4 Z" /><glyph glyph-name="uni67B6" unicode="&#x67b6;" d="M83 193 Q88 193 92 173 Q101 166 105 154 L105 147 Q105 128 80 83 L67 70 L64 70 Q54 70 45 82 Q28 60 15 60 Q9 62 9 64 L9 74 Q22 93 31 93 Q45 110 46 121.5 Q47 133 50 147 L36 147 L33 149 Q33 159 62 174 Q68 192 78 192 L83 193 ZM192 177 L201 166 L200 159 Q196 159 171 133 L179 126 L179 117 Q179 115 164 111 L145 93 Q145 90 171 86 L173 76 L172 75 L169 75 Q139 75 139 66 L134 20 Q181 -2 236 -17 L241 -21 L234 -24 Q219 -18 167 -4 Q144 9 132 13 L132 -1 L134 -21 L135 -24 Q135 -40 126 -44 Q112 -37 78 -34 L64 -27 Q56 -27 33 -41 Q21 -41 17 -33 L17 -31 Q17 -18 49 -3 L67 16 Q82 39 98 56 L95 56 Q63 34 57 34 L55 36 Q55 57 86 67 Q129 92 129 93 L129 96 Q123 112 119 152 L117 156 L118 157 L123 157 L124 156 L126 156 Q126 166 190 177 L192 177 ZM135 147 L138 130 L144 130 Q158 139 171 157 L160 157 Q135 156 135 147 ZM83 156 Q83 150 58 100 Q60 95 62 95 L64 95 Q67 95 72 104 Q77 110 87 146 L87 149 L86 156 L83 156 ZM115 75 L117 75 Q129 78 129 80 L129 83 L127 83 L115 75 ZM105 59 Q111 59 111 56 L111 47 Q111 38 76 -13 L76 -15 Q80 -21 101 -21 L117 -21 L119 -19 L119 10 L120 12 Q119 20 111 20 L110 23 L111 25 L120 22 L126 67 Q116 67 105 59 Z" /><glyph glyph-name="uni6846" unicode="&#x6846;" d="M72 192 Q86 193 92 162 L88 127 Q90 122 102 122 L104 121 L104 119 Q104 112 92 91 L98 88 Q96 72 81 42 L85 42 Q97 53 106 78 L108 78 L108 75 Q105 54 77 16 Q72 8 68 -1 L72 -18 Q73 -29 62 -36 L51 -36 Q46 -11 44 -5 L33 -15 L22 -24 Q15 -24 10 -20 L10 -16 Q10 -4 39 24 Q54 47 61 64 L61 69 L57 69 L32 53 L27 53 Q18 53 18 56 Q21 64 49 79 Q72 98 71 131 L73 142 L72 143 L72 145 L73 160 Q73 173 59 180 Q63 192 72 192 ZM212 175 L228 176 L236 173 L238 171 L238 169 Q225 153 215 145 Q178 138 172 121 Q127 58 120 21 Q120 -21 111 -21 L105 -22 L101 -11 Q106 15 123 50 L169 134 L169 136 L139 130 L129 130 L126 131 Q126 140 203 173 L212 175 ZM215 126 Q224 126 230 117 L231 113 Q223 102 221 68 L228 63 Q217 42 211 11 L234 7 L234 5 Q224 -7 205 -7 L199 -9 L160 -20 L158 -18 L158 -12 Q157 -1 177 18 L179 18 L179 23 Q164 38 164 42 Q177 66 200 67 L203 103 L197 111 L176 101 Q198 121 215 126 ZM187 43 L187 41 Q188 33 191 33 L196 45 L194 53 L192 53 Q186 51 187 43 ZM228 -17 L237 -17 L241 -24 L238 -30 L232 -30 L212 -32 Q177 -39 146 -42 L120 -43 Q102 -37 100 -32 L103 -29 L108 -28 L143 -30 L162 -31 Q214 -25 228 -17 Z" /><glyph glyph-name="uni6C42" unicode="&#x6c42;" d="M123 192 Q139 185 138 170 L137 158 L139 158 Q148 162 159 165 L160 166 L162 166 Q175 153 174 144 L174 139 Q174 135 152 130 L126 121 L118 103 L118 96 L119 85 L118 75 L120 75 Q146 97 154 96 L157 97 Q163 94 163 91 Q162 74 121 45 L122 36 L121 22 Q210 -19 224 -20 Q241 -23 241 -33 L241 -35 L233 -41 Q202 -40 190 -30 Q176 -15 123 7 Q122 -5 126 -24 L125 -25 L125 -27 L126 -32 Q117 -40 110 -40 L105 -40 Q99 -39 78 -27 Q64 -13 61 -13 L55 -10 Q29 -44 20 -43 L16 -43 Q12 -42 10 -27 L10 -24 Q37 -1 54 39 L40 37 Q21 48 22 57 L22 60 L31 59 L45 62 Q70 81 76 81 Q97 79 97 70 L99 69 L100 75 L101 76 L100 79 L101 90 L101 99 L102 107 L99 107 Q90 103 77 104 Q59 105 50 121 L53 124 L65 121 Q110 138 111 149 L111 152 L112 171 Q113 178 106 189 L111 191 L113 190 L123 192 ZM197 177 L199 176 L201 176 Q213 169 220 155 Q220 153 217 150 Q214 147 209 145 L207 145 L199 151 L193 174 L197 177 ZM119 71 L119 60 L122 60 Q138 78 137 83 L119 71 ZM93 58 L89 51 Q94 53 94 57 L93 58 ZM89 31 L91 30 L96 32 L94 35 L89 31 ZM73 27 L60 -2 L58 -6 L61 -8 L64 -7 Q68 -10 84 -12 Q96 -13 96 -4 Q98 23 87 24 Q82 27 73 27 Z" /><glyph glyph-name="uni6CA1" unicode="&#x6ca1;" d="M39 191 Q68 174 67 162 L68 155 Q64 133 50 134 L36 131 Q36 139 30 152 L25 170 L25 175 L27 184 L28 192 L39 191 ZM158 185 L166 184 Q173 184 175 174 Q169 141 158 122 Q171 120 171 117 L171 112 Q170 101 143 72 L145 68 L149 68 L156 69 L159 69 L163 66 L161 60 L161 50 L162 49 L161 43 L162 30 L158 3 Q181 -10 233 -26 Q241 -32 241 -34 L235 -39 L225 -43 L186 -39 Q173 -38 145 -21 Q132 -28 86 -34 L77 -36 L73 -36 Q65 -29 65 -27 L65 -25 Q119 -18 129 -6 Q104 12 93 23 Q93 26 86 33 Q86 36 91 36 L105 32 L105 35 L104 45 L135 83 L136 84 L134 85 Q126 80 118 80 L111 76 L101 70 Q93 70 89 75 Q83 87 83 94 L84 104 L85 105 L84 108 Q94 180 106 180 Q123 172 122 167 Q128 167 154 184 L158 185 ZM130 153 L120 145 L119 140 Q114 124 120 109 Q139 113 146 159 L146 161 L143 161 L130 153 ZM79 113 L81 113 L80 101 Q63 48 58 25 L37 -23 Q29 -29 25 -29 Q16 -28 11 -17 L10 -12 L11 -3 L18 47 L17 48 L27 98 L29 98 Q44 68 43 56 L43 52 L46 52 L73 100 L79 113 ZM119 29 Q118 23 136 13 Q143 12 145 33 L143 44 Q131 41 119 29 Z" /><glyph glyph-name="uni6D4F" unicode="&#x6d4f;" d="M209 192 Q232 182 232 179 Q236 175 239 167 L241 156 L234 94 L235 21 L231 -10 L232 -12 L231 -16 L232 -19 L231 -22 L234 -34 Q226 -39 209 -43 L208 -42 L195 -44 Q195 -40 177 -39 L176 -40 Q162 -39 162 -38 L160 -39 L142 -39 L137 -40 Q129 -39 129 -37 L132 -37 Q181 -37 210 -7 Q218 16 218 61 L215 151 L216 161 Q216 178 203 187 L203 189 L209 192 ZM52 172 Q82 151 84 135 L76 129 Q69 128 61 128 L60 129 L61 136 Q50 167 50 171 L52 172 ZM114 163 Q142 162 142 153 Q137 137 123 137 Q121 145 107 157 L107 161 L114 163 ZM129 117 Q145 117 145 114 Q144 107 137 99 Q134 97 131 93.5 Q128 90 126 85 L127 84 Q125 84 120 49 Q142 40 142 32 Q138 25 128 25 L115 32 L101 9 Q89 0 84 0 L82 0 Q62 2 62 15 L61 16 L61 25 L65 29 Q75 14 82 14 Q95 14 104 42 Q87 54 83 54 L83 58 L95 58 L109 54 L109 56 L115 83 L114 87 L112 87 L105 85 Q93 92 93 100 L93 104 L97 101 Q109 103 119 116 L129 117 ZM159 108 L164 108 Q170 108 176 80 L178 60 L176 49 L168 49 L163 52 L159 65 L162 93 L162 97 L159 108 ZM36 85 L38 85 Q52 60 52 40 Q55 41 62 58 L64 58 L65 56 L53 14 L45 -12 Q45 -23 29 -30 L25 -31 L19 -27 L12 -12 L10 -3 L12 1 Q27 16 34 60 Q34 77 36 85 Z" /><glyph glyph-name="uni7248" unicode="&#x7248;" d="M96 193 L101 193 Q114 193 114 168 Q114 151 99 118 L104 114 L111 114 L111 111 Q109 101 70 78 Q62 78 60 53 L56 39 L58 39 Q70 45 91 67 L108 68 L111 67 Q118 100 154 134 Q174 157 179 157 L190 160 L190 151 Q177 129 161 92 L161 89 Q180 106 198 106 L199 104 L199 102 L186 63 Q178 34 178 22 Q205 1 239 -9 L241 -14 L241 -17 Q240 -37 230 -37 Q200 -37 170 -8 Q162 -35 124 -35 L106 -38 Q101 -36 101 -35 L138 -21 Q151 -16 160 0 L160 5 Q156 5 138 30 Q115 -11 112 -11 L106 -11 Q104 -11 103 5 Q103 16 120 37 Q128 53 129 59 Q132 59 151 100 L160 125 Q130 109 118 73 Q102 34 96 3 L94 -21 L95 -26 Q91 -38 87 -43 L81 -43 L76 -28 Q78 -24 80 42 Q53 27 53 23 Q43 -12 26 -33 L21 -33 Q10 -28 10 -17 L10 -14 L28 18 L33 33 L39 63 Q46 108 46 121 L43 155 Q46 154 55 134 Q65 127 69 107 L66 87 L69 87 Q90 102 90 114 L98 178 L98 181 L93 188 L96 193 ZM149 42 Q161 30 168 30 L180 75 L180 81 L178 81 Q169 78 150 47 L149 42 ZM91 32 L91 23 L94 23 L103 51 Q91 51 91 32 Z" /><glyph glyph-name="uni73B0" unicode="&#x73b0;" d="M177 192 Q182 189 185 183 L181 138 L177 80 L177 78 Q175 13 165 13 L154 18 L154 13 Q154 -4 178 -7 Q219 -2 219 11 Q224 19 224 38 Q224 54 224 58 L227 57 Q227 37 232 22 Q237 7 241 -1 Q238 -13 224 -29 L219 -31 L176 -32 Q146 -32 140 21 Q137 21 130 31 L124 33 Q101 -14 84 -38 L74 -38 Q74 -16 84 -1 Q87 9 101 25 L103 26 L103 28 L99 38 L100 46 L100 49 L99 56 Q99 74 101 78 L101 80 L99 80 Q96 56 57 9 L22 -43 L16 -44 L14 -27 Q14 -21 22 3 Q10 43 10 51 Q10 65 40 81 L41 95 L41 110 L44 117 Q49 117 50 85 L53 86 Q65 86 69 77 L69 71 L56 38 L50 21 Q85 56 93 86 Q99 99 108 145 L118 150 Q123 147 124 145 Q119 129 116 74 L116 68 L114 53 L114 51 L117 51 Q150 104 157 105 L159 100 Q147 77 147 68 L147 63 L151 56 L150 53 Q150 35 166 33 Q168 38 168 49 L167 107 L168 115 L168 117 L170 163 Q170 183 163 183 L134 175 L131 177 L131 180 Q167 192 177 192 ZM27 182 L49 182 Q71 182 72 170 L74 160 Q74 140 61 134 Q54 134 31 142 Q22 154 22 163 L22 175 L27 182 ZM22 45 L22 43 Q22 36 28 21 Q33 23 40 56 L39 66 Q22 55 22 45 Z" /><glyph glyph-name="uni7406" unicode="&#x7406;" d="M17 193 L22 193 L37 187 L48 189 Q61 187 71 173 Q64 149 52 149 L41 154 L38 149 Q46 120 72 93 L74 76 L71 52 L72 50 L74 50 Q98 79 98 91 L101 91 L104 87 Q104 53 50 -21 Q50 -23 38 -31 Q25 -31 25 -4 Q37 10 41 28 Q41 41 19 63 L10 81 L10 83 Q10 96 31 111 L31 115 Q27 121 25 143 L29 159 Q25 160 17 193 ZM196 173 Q225 173 240 143 L217 117 Q214 117 183 76 Q176 71 176 59 Q176 44 191 39 L204 23 L204 19 Q192 -4 188 -4 L188 -7 Q188 -11 196 -11 Q212 -19 213 -24 L213 -26 Q213 -31 191 -43 L188 -43 Q174 -42 180 -39 L181 -37 L181 -33 L155 -33 Q143 -32 143 -21 L160 7 L136 35 L136 37 Q136 45 155 47 L155 49 L152 73 L144 87 L147 89 Q147 85 159 81 Q163 87 165 105 L160 111 Q143 101 143 91 L141 91 L136 97 L136 101 Q136 112 164 131 L160 154 Q140 154 124 143 L124 145 Q132 163 196 173 ZM174 153 L174 139 Q174 136 180 133 L192 129 Q195 129 204 154 L200 157 L183 157 Q174 156 174 153 ZM92 155 Q102 155 116 133 Q124 133 128 101 Q130 101 132 83 L129 78 L128 76 L126 76 L120 79 Q113 86 98 141 Q93 151 89 151 L89 153 L92 155 ZM162 52 L160 50 L160 47 L162 47 L165 50 L164 52 L162 52 ZM153 29 L152 28 L152 26 L165 11 L168 17 Q168 29 153 29 Z" /><glyph glyph-name="uni751F" unicode="&#x751f;" d="M189 192 L194 192 L203 185 L203 169 Q203 164 226 131 Q220 118 204 112 Q196 112 194 90 Q189 83 185 60 Q217 55 217 43 Q217 32 191 17 Q187 12 180 10 L181 -3 L181 -10 L219 -3 Q241 -9 241 -13 L241 -17 Q241 -25 156 -37 L133 -37 L105 -43 Q92 -43 88 -34 Q91 -11 102 -11 Q143 15 143 22 Q143 27 133 45 Q107 63 107 70 Q122 70 145 65 L150 67 L158 105 Q93 92 83 84 Q70 74 46 43 L40 43 L27 45 Q10 50 10 58 L10 67 Q46 94 66 119 Q71 123 77 140 L75 146 Q79 154 84 155 Q126 146 126 131 L126 129 Q126 124 109 105 L113 105 Q161 108 161 116 Q170 155 176 172 Q176 183 189 192 ZM145 -16 L156 -16 L156 -7 Q152 -7 145 -16 Z" /><glyph glyph-name="uni7684" unicode="&#x7684;" d="M75 193 Q92 178 94 164 Q88 145 78 145 Q46 135 46 121 Q28 90 28 76 Q31 76 35 67 L37 67 Q66 92 82 93 L89 93 Q104 84 104 59 L105 43 Q105 -2 73 -16 Q67 -20 53 -21 Q53 -24 42 -25 Q33 -25 24.5 -18.5 Q16 -12 12 27 L10 43 Q17 99 28 110 Q41 128 56 176 Q62 193 75 193 ZM172 148 Q175 148 177 142 Q177 129 170 111 L172 111 Q196 118 209 118 L220 118 Q234 118 236 98 L235 92 L235 90 L240 43 L240 37 Q240 -32 206 -32 Q190 -38 158 -44 L148 -43 Q138 -42 119 -32 Q104 -32 98 -4 L100 -4 Q114 -21 121 -21 L134 -22 Q165 -22 215 2 Q227 25 227 50 L224 109 L213 112 L206 111 Q161 102 157 93 L138 74 Q130 86 130 92 Q166 129 166 144 L162 147 L172 148 ZM42 38 L46 35 Q78 35 78 27 L78 24 Q78 21 67 19 Q67 24 44 25 L41 23 L41 17 Q46 -4 51 -4 Q89 -4 89 57 Q87 76 82 76 L78 76 Q53 58 42 38 ZM130 47 Q189 42 189 23 L191 21 L189 20 L180 15 Q175 16 161 25 Q143 34 128 46 L130 47 Z" /><glyph glyph-name="uni770B" unicode="&#x770b;" d="M119 192 Q147 194 161 190 Q179 186 189 168 L189 155 L187 154 L170 156 L162 146 L162 143 Q162 141 171 138 Q176 134 176 126 L163 118 L152 119 Q140 109 140 105 L142 105 Q194 115 194 117 L192 122 L199 123 Q208 121 215 121 L225 121 Q234 122 237 116 L241 105 L158 98 Q141 94 124 81 L113 64 L116 59 Q144 68 165 68 L179 68 Q198 63 198 47 Q195 44 194 28 L195 -3 Q195 -43 173 -43 Q169 -43 144 -31 L124 -26 Q124 -30 118 -32 Q93 -21 93 -6 L97 39 L86 30 L63 -11 L64 -13 L66 -13 Q63 -20 54 -22 L46 -17 L51 1 L77 49 L84 65 Q44 55 36 48 L32 48 Q21 48 9 64 L9 70 Q12 75 18 74 L22 72 Q106 90 106 98 L118 118 Q118 125 110 125 Q90 134 84 144 L93 143 L111 143 L118 144 L124 143 L133 146 Q142 152 144 158 L146 159 L146 163 L135 174 Q119 181 93 185 L93 188 L119 192 ZM118 22 L119 7 Q131 7 131 12 L142 12 Q156 10 156 -1 L156 -3 L152 -5 L146 -5 L121 1 L126 -19 Q133 -19 133 -14 L142 -13 Q150 -13 160 -23 L173 -25 Q183 -25 183 -4 Q180 55 168 55 L163 56 Q144 56 119 39 L118 37 L118 22 ZM144 31 Q153 31 160 23 L160 16 L157 14 L156 15 L154 14 L151 14 Q138 14 126 28 L144 31 Z" /><glyph glyph-name="uni7801" unicode="&#x7801;" d="M186 194 Q194 194 200 175 Q200 167 193 162 Q188 155 181 90 Q178 77 178 66 L179 65 L211 67 Q241 65 241 48 Q241 19 213 -25 Q204 -44 191 -44 L166 -39 Q150 -37 148 -33 L148 -28 L170 -28 Q207 -18 207 -3 Q218 21 221 40 L221 50 Q221 56 207 61 Q175 51 165 42 L142 26 Q138 31 133 50 Q145 93 145 105 L145 107 L142 113 Q144 129 148 129 L150 129 Q157 124 157 105 L156 100 L157 99 L157 97 L156 91 Q154 80 162 80 L166 80 L174 153 L174 162 L166 164 L151 166 L151 170 Q166 181 180 192 L186 194 ZM105 145 L113 128 Q95 113 72 72 Q67 65 67 58 L74 5 Q68 -12 66 -12 L57 6 L57 15 L61 34 L61 42 L60 48 Q29 -1 19 -12 L15 -13 Q9 -5 9 0 L9 2 Q9 8 29 16 Q56 56 56 65 Q68 81 74 102 L72 102 L66 99 L57 99 Q51 99 48 105 Q74 122 93 145 L105 145 ZM108 70 Q117 69 117 66 L117 61 Q101 44 96 32 L96 29 Q107 40 112 40 Q117 38 117 26 Q110 18 104.5 16 Q99 14 81 6 L77 21 Q85 31 96 53 L93 54 L91 53 L77 56 L77 58 Q77 59 95 65 L108 70 ZM169 24 L178 24 L181 19 Q181 -2 166 -7 Q154 -14 129 -14 L125 -16 Q111 -16 99 -4 Q99 0 169 24 Z" /><glyph glyph-name="uni79CD" unicode="&#x79cd;" d="M184 194 L187 194 Q194 193 195 190 L195 187 Q195 175 187 124 L187 120 Q193 120 213 134 L235 137 L240 133 Q240 120 214 97 L215 95 Q223 95 225 90 L225 86 Q220 72 212 69 L210 67 L208 67 L196 61 Q189 61 187 57.5 Q185 54 184 40 L186 28 L186 17 L185 16 L186 15 L188 -15 L189 -21 L189 -29 Q186 -40 183 -42 L182 -44 L179 -44 Q176 -44 173 -29 L174 15 L173 35 Q171 49 169 49 L165 48 L154 51 Q154 67 173 87 L175 99 L174 100 L172 100 L138 94 Q148 102 177 115 Q186 163 185 186 L181 190 L184 194 ZM83 167 Q92 168 93 152 Q93 147 84 142 Q54 146 47 156 Q68 166 83 167 ZM76 125 Q96 125 96 121 Q96 117 75 76 L75 67 L74 46 L74 44 Q113 79 112 93 L119 96 Q132 96 132 93 L133 94 L135 94 L141 78 L148 59 L142 47 Q141 46 138 46 Q119 57 118 64 L117 79 L117 83 L114 82 Q114 79 82 44 Q73 32 73 17 L73 -14 L70 -27 L67 -28 Q63 -17 63 -9 L64 10 L62 10 L36 -26 L28 -27 L24 -18 L24 -11 L23 -2 Q44 22 52 50 Q31 34 21 34 Q10 43 10 50 L11 54 L14 54 Q14 50 17 50 Q29 51 67 92 Q71 125 76 125 ZM78 123 Q75 117 76 101 L77 100 L86 111 Q86 119 78 123 ZM185 103 L185 101 L187 101 L191 107 L188 106 L185 103 ZM64 44 L57 25 Q66 31 66 39 L64 44 Z" /><glyph glyph-name="uni79EF" unicode="&#x79ef;" d="M55 193 Q103 179 103.5 172.5 Q104 166 106 157 Q102 157 96 147 L92 141 Q97 133 97 128 Q96 113 95 113 L96 110 L78 50 Q118 79 134 109 L132 113 Q129 125 129 129 Q129 141 138 141 L140 141 Q146 132 149 132 Q149 138 191 149 Q206 150 209 154 L211 154 L220 155 L221 154 Q230 149 231 144 Q231 137 200 102 Q211 102 215 85 L213 79 Q213 74 183 71 L153 51 Q147 43 131 33 L127 25 L127 23 L130 20 L200 33 L211 33 Q228 33 240 5 Q240 -16 226 -16 Q213 -12 205 -4 Q203 1 197 1 L195 1 L194 -1 L192 -1 L191 2 Q193 2 198 17 Q198 23 180 25 L175 25 Q137 18 137 -9 L126 -16 Q116 -16 113 3 L112 19 Q112 25 155 64 L157 64 L157 66 Q157 70 147 73 L140 93 L137 105 L135 105 Q135 95 100 53 L67 2 L66 -6 L67 -9 L66 -11 L66 -13 L67 -16 Q63 -44 61 -44 Q59 -44 52 -37 Q50 -32 50 -27 L50 -9 L29 -27 L21 -16 L18 -6 L18 2 L41 33 L61 64 L61 66 L58 66 Q40 53 25 53 Q15 53 10 74 L13 77 L19 75 Q56 90 73 113 Q73 124 79 144 Q79 152 59 170 L50 190 L55 193 ZM153 131 L155 107 L160 75 L158 67 L160 67 L164 73 Q164 80 161 80 Q161 100 175 109 Q200 131 200 137 L153 131 Z" /><glyph glyph-name="uni79FB" unicode="&#x79fb;" d="M162 193 Q173 186 173 178 L167 146 Q179 142 182 134 L154 79 L154 76 L172 81 Q190 81 193 56 L194 33 L194 15 Q194 6 204 6 L204 3 L196 4 Q189 -37 174 -37 Q174 -41 141 -44 Q125 -44 111 -30 Q91 -30 81 -15 Q93 -21 107 -24 Q113 -24 114 -14 L113 -10 L116 3 L114 3 Q66 -3 66 -14 L66 -21 L63 -34 L61 -34 L55 -32 L51 -20 L50 -17 Q50 -8 50 3 L29 -16 Q26 -16 24 -13 Q22 -10 22 0 L21 6 Q29 19 55 76 L55 81 L19 48 L15 47 L10 57 Q27 63 60 102 L63 121 Q63 136 51 142 L30 165 L35 170 L49 170 Q81 163 81 143 L81 141 L78 121 L78 117 L77 115 L81 112 L85 113 Q93 110 93 103 Q81 96 75 85.5 Q69 75 69 70 Q68 59 66 59 L67 58 L66 52 L66 39 Q103 73 109 81 L111 80 L89 50 L66 16 L66 -6 Q78 2 119 8 Q140 40 161 52 L165 52 Q169 52 169 47 Q169 38 167 37 L161 10 L186 10 L186 7 L160 7 Q139 -25 126 -26 Q126 -30 140 -32 L145 -32 Q182 -25 182 -6 L185 1 Q184 6 184.5 8.5 Q185 11 185 15 L185 30 L184 32 L184 37 Q184 70 167 70 L165 70 Q147 64 131 40 L126 40 L119 48 Q119 61 135 79 L146 106 Q136 106 126 115 Q126 127 149 158 L158 184 L162 193 ZM125 10 L125 8 L150 11 L150 9 L123 3 L122 -7 Q123 -17 125 -17 Q149 -2 149 10 Q153 10 157 36 L155 39 L152 39 Q134 27 125 10 ZM51 36 L48 23 Q54 27 54 36 L51 36 ZM202 6 Q240 0 240 -4 L240 -6 L236 -8 Q236 -4 202 3 L202 6 Z" /><glyph glyph-name="uni7AEF" unicode="&#x7aef;" d="M139 193 L147 193 Q167 175 167 152 L169 152 Q189 158 198 165 L199 164 Q199 183 222 191 Q231 188 230 180 L230 178 Q220 148 191 116 L195 110 L195 108 Q174 83 152 72 L182 78 Q242 65 241 46 Q241 24 188 -3 L188 -22 Q187 -44 174 -44 Q170 -40 163 -40 L163 -35 Q176 -36 176 -12 L175 -8 L164 -8 L150 -4 L141 -15 L138 -2 L139 14 L139 27 L138 35 L139 36 L139 48 L136 48 L89 15 L88 16 L88 27 Q125 57 158 90 Q129 74 125 74 Q121 79 121 84 Q121 94 146 101 Q174 118 182 130 Q148 119 140 113 Q136 103 127 100 Q112 101 103 134 L105 141 L105 167 L107 170 L109 170 Q119 161 123 153 L128 143 L134 138 Q143 142 143 144 L144 157 L144 161 Q144 176 139 193 ZM45 169 L51 169 Q66 164 70 156 L71 154 L70 145 L70 142 Q44 146 45 169 ZM52 123 Q71 121 70 115 L70 111 L69 109 L70 108 L70 105 Q59 100 36 69 Q77 86 82 86 L85 86 L88 84 L88 80 Q88 67 49 38 L50 36 L65 42 L66 40 L66 33 L65 26 Q54 9 13 -2 L10 2 L11 11 Q11 15 24 19 Q66 56 71 71 L33 50 Q28 50 24 65 Q52 99 52 107 L38 120 L52 123 ZM149 55 L151 27 L150 24 Q150 2 163 1 L169 1 Q175 2 175 5 Q173 47 165 61 L167 60 L170 62 L172 62 Q179 62 186 8 Q224 33 224 46 Q224 52 206 57 Q202 63 175 66 Q157 67 149 55 Z" /><glyph glyph-name="uni7B80" unicode="&#x7b80;" d="M76 193 L80 193 Q91 185 91 178 Q80 166 80 162 L88 162 L118 157 Q144 179 159 185 L176 185 Q192 181 198 181 L207 182 L233 173 L235 172 L235 170 Q229 163 211 157 L208 157 Q194 154 151 132 L146 132 L146 136 Q182 154 182 162 Q176 162 151 173 Q131 160 131 152 L131 148 L132 143 Q132 129 106 126 Q99 126 76 134 L66 136 L57 129 L51 125 Q26 111 14 110 L9 114 L9 132 Q9 141 34 152 Q75 184 76 193 ZM82 123 L88 123 L89 122 L91 123 L93 123 Q102 121 106 117 L106 113 Q103 108 82 103 L80 105 L82 106 L82 112 L80 120 L82 123 ZM184 107 L209 107 Q226 107 241 93 L241 89 Q224 70 224 59 L228 18 L228 2 L232 -18 L236 -36 Q233 -42 230 -42 L215 -42 L190 -38 L174 -40 L173 -41 L157 -41 L118 -44 Q111 -44 107 -36 L107 -34 L118 -34 L140 -35 L153 -35 Q205 -31 205 -18 L207 -14 L207 6 Q207 96 191 96 L184 97 Q156 89 121 75 Q117 75 86 58 L67 50 L64 51 Q128 95 184 107 ZM51 85 L59 75 L59 70 Q45 54 44 38 L39 6 L41 -10 Q29 -13 22 -17 L19 -17 Q13 -17 9 0 Q27 64 46 82 L51 85 ZM134 69 L143 69 Q156 69 157 59 Q154 -2 142 -5 L130 -7 Q114 -5 114 0 L111 0 Q111 -4 101 -11 L99 -11 Q92 -11 88 21 Q97 48 111 54 Q123 64 134 69 ZM111 49 L111 38 L138 38 L144 34 L146 38 L146 55 L141 63 Q128 63 111 49 ZM111 34 L116 25 L114 11 L126 9 Q143 9 143 27 L143 29 L141 29 Q141 25 134 21 L132 21 L130 23 L130 31 L118 34 L111 34 Z" /><glyph glyph-name="uni7CBE" unicode="&#x7cbe;" d="M182 194 Q185 194 193 178 Q223 175 222 169 L222 165 Q215 153 198 154 L196 156 Q192 149 190 138 L190 132 Q206 131 210 112 L186 93 L185 91 Q211 106 220 108 Q238 105 237 101 L237 98 Q188 68 184 56 L178 48 L177 44 Q201 67 221 66 Q226 66 229 38 Q242 -11 241 -20 Q239 -41 212 -39 Q175 -30 175 -25 L176 -22 L181 -22 L206 -27 Q220 -26 221 -16 L221 -14 Q223 2 209 50 Q195 51 179 32 L179 30 L188 31 Q211 26 211 21 L210 16 Q209 13 201 11 L192 13 L189 9 L189 6 Q206 5 204 -10 L197 -14 L189 -14 Q176 -2 177 7 Q185 15 185 21 L181 29 L177 29 Q173 19 169 19 L170 4 L164 -18 L162 -35 L150 -44 Q139 -43 132 -26 L135 -3 Q140 18 162 55 L165 60 L163 60 Q130 46 125 46 L123 46 L117 52 Q121 69 136 75 L145 82 L145 85 Q132 94 133 103 Q134 112 168 130 L172 145 L173 154 L146 156 L146 158 L175 176 L175 179 L176 185 L176 187 L175 193 L177 194 L182 194 ZM100 181 L103 181 Q111 176 111 168 Q109 155 86 119 L83 110 L87 101 L73 71 L72 56 L69 49 Q97 74 98 77 L101 77 L101 75 L73 37 L69 22 Q73 8 74 -4 Q74 -18 70 -26 L63 -25 Q51 -19 53 0 L52 15 Q37 1 28 -3 L24 -3 Q21 -3 13 14 Q38 43 48 65 L48 68 Q42 69 14 51 L12 51 L10 53 L12 72 Q58 117 60 132 L56 144 L56 150 Q64 158 66 167 Q61 167 60 176 L65 177 Q84 167 89 167 L91 168 L91 170 L86 177 Q88 182 100 181 ZM37 168 L40 163 L46 140 L46 131 L34 121 Q28 130 28 135 L29 145 L30 148 L32 157 L33 166 L37 168 Z" /><glyph glyph-name="uni7EA7" unicode="&#x7ea7;" d="M158 184 Q177 182 176 169 L176 164 L158 109 Q179 107 176 77 L175 54 L166 6 Q179 -6 218 -17 L219 -16 L221 -16 Q241 -24 241 -29 Q240 -35 226 -44 Q184 -32 155 -17 Q129 -42 106 -39 L104 -31 L113 -32 Q125 -33 144 -14 L148 -9 Q146 -1 121 19 L109 34 Q98 21 85 -18 Q78 -26 68 -25 L66 -17 Q68 3 84 29 Q93 46 94 58 L95 63 L103 86 L106 95 L108 103 L106 104 Q96 97 68 32 Q39 -17 37 -33 Q37 -36 28 -40 L26 -43 L24 -43 Q21 -43 16 -24 Q39 20 40 35 L40 37 L38 37 Q27 15 22 13 L16 12 Q12 14 13 23 L13 29 Q48 91 51 109 L50 111 L48 111 L34 96 L15 98 L10 104 L11 112 L40 161 Q45 184 45 187 L46 188 Q49 194 55 193 L62 192 Q80 188 79 173 L79 170 L59 131 Q72 124 71 113 Q70 102 50 64 L63 63 L65 60 L60 47 L64 46 Q97 112 113 132 L121 132 Q126 128 127 112 L115 49 Q120 37 152 16 Q158 16 164 73 L164 80 Q165 87 162 89 L158 89 L150 86 L143 82 Q139 82 138 96 L154 156 L154 162 L152 165 L145 166 Q136 166 113 148 Q127 187 158 184 Z" /><glyph glyph-name="uni7EC8" unicode="&#x7ec8;" d="M73 194 L75 194 Q77 194 80.5 188.5 Q84 183 84 179 L84 177 L82 172 Q81 162 50 125 Q55 125 54 122 Q54 105 37 77 L38 75 Q53 75 53 51 Q69 87 81 124 L83 124 L83 122 Q69 71 56.5 38 Q44 5 39 -15 L31 -26 L25 -18 L24 -8 L36 54 L34 59 Q28 58 20 47 L15 43 Q8 51 9 60 Q9 67 26 93 L26 96 L20 93 L15 101 Q16 118 32 128 Q69 171 69 177 L73 185 L73 194 ZM124 192 Q139 190 139 173 L139 167 Q151 167 152 160 Q152 157 145 142 L133 106 L133 104 Q144 93 149 89 Q154 85 210 61 L212 61 L221 60 Q238 52 239 41 L240 40 L240 38 Q232 23 217 24 L200 30 Q169 39 163 43 L132 69 L124 79 Q122 79 117 63 Q96 24 81 24 Q70 24 62 34 L60 45 L64 45 L76 41 L81 41 Q96 47 107 79 Q113 86 113 96 L113 98 L107 110 L107 115 Q107 118 114 118 L116 119 L115 112 L121 112 L130 139 L127 138 Q120 138 118 158 L124 170 L124 173 Q124 179 119 187 Q119 189 124 192 ZM130 38 L132 38 Q138 38 149 21 L149 18 Q147 5 143 6 L131 9 L131 6 Q131 -7 148 -24 L151 -31 Q149 -44 147 -44 Q126 -43 127 -28 L124 -12 L124 -1 L130 24 Q126 25 126 35 L130 38 Z" /><glyph glyph-name="uni7ECF" unicode="&#x7ecf;" d="M68 192 Q86 192 91 172 L91 168 Q91 158 64 115 L64 109 L70 102 L70 98 Q70 88 41 42 L44 39 L58 42 L61 42 Q67 39 68 36 L68 19 L71 16 L73 20 L76 20 Q76 14 56 -32 Q56 -40 49 -44 L47 -43 Q37 -39 37 -32 Q49 3 49 16 L49 26 Q37 26 27 7 L20 -1 Q11 -1 9 11 Q9 16 24 46 Q39 76 39 83 L39 86 Q39 90 20 95 L16 102 Q16 118 27 125 L47 158 Q50 163 68 192 ZM179 174 L187 175 Q207 175 207 163 Q191 135 161 94 L167 94 L211 103 Q230 101 230 98 Q222 92 196 80 L162 53 L162 51 L169 51 Q186 62 195 62 L200 62 Q209 60 209 56 Q197 47 190 28 L184 20 L184 16 L188 15 L202 14 L216 17 L218 17 Q234 17 240 4 Q239 -13 230.5 -15.5 Q222 -18 210 -19 L178 -18 L136 -20 L129 -20 Q108 -20 97 -4 Q100 0 138 7 Q138 10 161 15 Q172 20 179 32 L183 40 L179 40 L150 32 L146 36 L146 45 Q146 47 162 60 Q176 73 190 81 L192 83 L190 85 Q153 80 140 71 Q120 48 115 48 Q105 49 105 53 Q105 65 125 85 Q161 134 166 154 L164 158 L162 158 L134 155 Q142 162 166 169 L179 174 Z" /><glyph glyph-name="uni7ED9" unicode="&#x7ed9;" d="M146 194 Q152 194 155 187 Q155 179 141 133 L174 105 Q198 86 219 86 Q223 85 230 85 Q241 78 241 76 L241 74 L239 63 L223 58 Q188 65 171 76 L171 74 Q171 65 140 55 Q109 35 109 21 L108 17 L109 -2 Q110 -4 113 -22 L105 -27 Q100 -26 95 -6 L95 6 Q102 27 117 45 L117 47 Q108 47 102 56 L102 60 L105 64 L106 63 L108 63 Q114 63 120 66 L163 85 L136 117 Q94 54 94 42 L89 38 L85 38 Q82 38 82 47 Q56 -2 24 -43 L18 -44 Q10 -37 10 -29 Q23 6 23 14 L18 16 L9 20 L9 30 Q9 40 24 59 Q36 78 36 85 L34 85 L20 83 L16 88 L16 90 Q16 99 30 117 L40 136 Q56 162 62 187 L64 190 Q67 190 84 172 Q84 164 70 138 Q51 109 51 105 Q56 101 60 101 Q62 98 64 86 Q61 74 40 48 L40 45 Q50 37 50 30 L44 5 Q82 52 89 81 L92 81 L88 58 Q91 60 103 87 Q125 119 128 131 Q131 143 136 151 Q146 176 146 187 L143 191 L146 194 ZM175 48 Q192 42 192 30 Q192 23 161 -5 Q167 -5 178 -15 Q174 -25 141 -30 L136 -29 L137 -25 L136 -20 L136 -9 L161 24 Q164 28 164 33 L144 33 L119 30 L119 33 Q149 48 175 48 Z" /></font>
</defs>
</svg>
